<svg xmlns="http://www.w3.org/2000/svg" xmlns:xlink="http://www.w3.org/1999/xlink" xmlns:fi="http://pattern.flaticon.com/" x="0" y="0" width="700" height="350" viewBox="0 0 700 350"><rect x="0px" y="0px" width="100%" height="100%" opacity="1" fill="#ffffff"/><defs><g transform="matrix(0.1697916491523753 0.04549553527192747 -0.04549553527192747 0.1697916491523753 -31.922121152666435 294.34530292751856)" id="L1_32"><path d="m412.695 280.845h-313.39c-2.437-16.644-1.903-33.721 1.742-50.426l37.618-172.483c6.424-29.442 32.493-50.436 62.62-50.436h109.431c30.127 0 56.196 20.994 62.62 50.436l37.618 172.483c3.644 16.705 4.178 33.782 1.741 50.426z" fill="#b98eff"/><path d="m351.304 504.5h-190.608c-29.291 0-48.785-30.288-36.641-56.941l25.616-56.266h212.659l25.616 56.266c12.143 26.653-7.351 56.941-36.642 56.941z" fill="#17d9c3"/><path d="m412.695 280.845c-2.406 16.362-7.683 32.302-15.738 47.053l-34.628 63.395h-212.658l-34.628-63.395c-8.055-14.751-13.331-30.691-15.738-47.053z" fill="#88f8d8"/><path d="m412.695 288.346h-313.39c-3.723 0-6.882-2.73-7.421-6.414-2.599-17.751-1.981-35.62 1.835-53.11l37.618-172.482c3.47-15.906 12.365-30.29 25.044-40.503 12.68-10.213 28.627-15.837 44.904-15.837h109.431c16.276 0 32.224 5.624 44.903 15.836 12.68 10.213 21.574 24.597 25.044 40.502l37.618 172.483c3.816 17.49 4.434 35.359 1.835 53.111-.54 3.683-3.698 6.414-7.421 6.414zm-306.752-15h300.114c1.354-13.839.54-27.711-2.432-41.327l-37.618-172.484c-5.63-25.806-28.883-44.535-55.292-44.535h-109.43c-26.408 0-49.662 18.729-55.292 44.535l-37.618 172.483c-2.972 13.617-3.786 27.488-2.432 41.328z" fill="#6d00ca"/><circle cx="310" cy="327" r="11" fill="#007ea8"/><path d="m280.691 355.614h-49.382c-4.142 0-7.5-3.357-7.5-7.5s3.358-7.5 7.5-7.5h49.382c4.142 0 7.5 3.357 7.5 7.5s-3.358 7.5-7.5 7.5z" fill="#007ea8"/><circle cx="201" cy="327" r="11" fill="#007ea8"/><circle cx="306" cy="89" r="29" fill="#ff63ed"/><path d="m288.768 270.398c0 3.608.463 7.108 1.326 10.447h80.627c.628-2.415 1.046-4.912 1.224-7.474.526-7.575-.976-14.755-4.017-21.052-3.974-8.228-4.31-17.649-1.499-26.344 1.328-4.108 1.972-8.522 1.799-13.11-.741-19.621-16.729-35.611-36.35-36.353-21.571-.816-39.315 16.429-39.315 37.819 0 4.079.646 8.007 1.84 11.687 2.834 8.732 2.334 18.219-1.612 26.508-2.579 5.415-4.023 11.475-4.023 17.872z" fill="#ff63ed"/><path d="m306.726 127.081c-20.658 0-37.464-16.807-37.464-37.465s16.807-37.465 37.464-37.465 37.464 16.807 37.464 37.465-16.806 37.465-37.464 37.465zm0-59.93c-12.387 0-22.464 10.078-22.464 22.465s10.078 22.465 22.464 22.465 22.464-10.078 22.464-22.465-10.077-22.465-22.464-22.465z" fill="#e207b9"/><path d="m370.721 288.346h-80.627c-3.419 0-6.406-2.313-7.262-5.624-1.038-4.018-1.564-8.164-1.564-12.323 0-7.379 1.598-14.477 4.75-21.097 3.089-6.488 3.533-13.935 1.25-20.969-1.464-4.511-2.207-9.222-2.207-14.003 0-12.438 4.935-24.038 13.896-32.667 8.958-8.626 20.745-13.093 33.202-12.646 23.539.891 42.673 20.027 43.562 43.565.203 5.362-.523 10.645-2.156 15.699-2.306 7.134-1.91 14.512 1.116 20.776 3.7 7.663 5.341 16.25 4.746 24.834-.206 2.967-.693 5.941-1.448 8.843-.859 3.305-3.843 5.612-7.258 5.612zm-74.326-15h68.031c.014-.164.027-.328.038-.493.416-5.983-.722-11.956-3.289-17.271-4.712-9.757-5.38-21.091-1.882-31.912 1.091-3.379 1.576-6.918 1.44-10.521-.594-15.746-13.394-28.547-29.139-29.142-8.328-.327-16.237 2.689-22.23 8.461-5.998 5.775-9.301 13.539-9.301 21.862 0 3.206.496 6.359 1.474 9.372 3.473 10.699 2.771 22.081-1.974 32.048-2.185 4.59-3.293 9.519-3.293 14.648-.002.985.041 1.968.125 2.948z" fill="#e207b9"/><path d="m418.372 275.943c-1.425-1.649-3.497-2.598-5.676-2.598h-313.391c-2.18 0-4.251.948-5.676 2.598-1.424 1.649-2.061 3.837-1.744 5.994 2.565 17.438 8.142 34.11 16.576 49.557l32.83 60.104-24.061 52.852c-6.764 14.846-5.531 31.902 3.297 45.626 8.831 13.728 23.848 21.924 40.17 21.924h190.607c16.322 0 31.339-8.196 40.17-21.924 8.828-13.724 10.061-30.78 3.297-45.624l-24.062-52.854 32.831-60.105c8.434-15.445 14.011-32.118 16.576-49.556.317-2.157-.32-4.344-1.744-5.994zm-39.513 206.018c-6.058 9.417-16.359 15.039-27.555 15.039h-190.608c-11.196 0-21.497-5.622-27.555-15.039-6.055-9.413-6.9-21.11-2.261-31.294l23.616-51.874h203.007l23.617 51.876c4.639 10.182 3.794 21.879-2.261 31.292zm11.516-157.658-32.495 59.49h-203.76l-32.494-59.489c-6.185-11.325-10.661-23.387-13.352-35.958h295.452c-2.691 12.571-7.166 24.632-13.351 35.957z" fill="#007ea8"/><path d="m247.736 155.037c2.879-6.047 4.491-12.814 4.491-19.957 0-26.28-21.802-47.467-48.305-46.462-23.529.892-42.941 19.652-44.572 43.142-.588 8.458 1.09 16.476 4.486 23.507 4.437 9.188 4.812 19.708 1.674 29.417-1.482 4.586-2.202 9.516-2.008 14.639.827 21.91 18.68 39.764 40.59 40.593 24.087.911 43.9-18.345 43.9-42.229 0-4.555-.721-8.941-2.055-13.05-3.166-9.751-2.608-20.344 1.799-29.6z" fill="#ff63ed"/><path d="m205.756 247.447c-.648 0-1.297-.012-1.949-.036-25.829-.978-46.825-21.976-47.801-47.805-.222-5.886.574-11.683 2.367-17.229 2.644-8.18 2.186-16.649-1.291-23.848-4.067-8.421-5.87-17.857-5.214-27.29.917-13.207 6.721-25.607 16.341-34.915 9.613-9.301 22.195-14.699 35.428-15.201 14.826-.572 28.873 4.784 39.541 15.055 10.672 10.275 16.549 24.091 16.549 38.902 0 8.107-1.756 15.907-5.219 23.181v.001c-3.546 7.446-4.057 15.991-1.438 24.059 1.606 4.952 2.421 10.122 2.421 15.366 0 13.648-5.416 26.38-15.25 35.849-9.361 9.013-21.542 13.911-34.485 13.911zm-.017-151.364c-.51 0-1.021.01-1.533.028-19.601.744-36.017 16.631-37.374 36.168-.475 6.832.825 13.653 3.758 19.727 5.163 10.69 5.893 23.115 2.057 34.984-1.251 3.87-1.807 7.925-1.651 12.05.681 18.036 15.343 32.699 33.379 33.381 9.569.372 18.597-3.08 25.462-9.691 6.87-6.615 10.654-15.509 10.654-25.043 0-3.67-.568-7.282-1.688-10.736-3.808-11.732-3.04-24.211 2.163-35.138v.001c2.496-5.244 3.762-10.874 3.762-16.733 0-10.697-4.245-20.675-11.953-28.097-7.336-7.063-16.886-10.901-27.036-10.901zm41.997 58.954h.01z" fill="#e207b9"/></g><g transform="matrix(0.0390625 0 0 0.0390625 77.5 340)" id="L1_33"><path d="m408.293 390.709c29.159 0 52.796-23.638 52.796-52.796v-136.318c0-29.159-23.638-52.796-52.796-52.796h-347.997c-29.159 0-52.796 23.638-52.796 52.796v136.319c0 29.159 23.638 52.796 52.796 52.796h347.997z" fill="#a4bcff"/><path d="m451.704 148.798h-43.411c29.159 0 52.796 23.638 52.796 52.796v136.319c0 29.159-23.638 52.796-52.796 52.796h43.411c29.159 0 52.796-23.638 52.796-52.796v-136.318c0-29.159-23.638-52.797-52.796-52.797z" fill="#7181ff"/><path d="m323.622 390.709v85.24c0 13.339-10.814 24.153-24.153 24.153h-40.317c-13.339 0-24.153-10.814-24.153-24.153s10.814-24.153 24.153-24.153h16.164v-61.086h48.306z" fill="#ff63ed"/><path d="m211.21 390.709v85.24c0 13.339-10.814 24.153-24.153 24.153h-40.317c-13.339 0-24.153-10.814-24.153-24.153s10.814-24.153 24.153-24.153h16.164v-61.086h48.306z" fill="#ff63ed"/><path d="m299.469 507.603h-40.317c-17.454 0-31.653-14.2-31.653-31.653s14.2-31.653 31.653-31.653h8.664v-53.586c0-4.142 3.358-7.5 7.5-7.5h48.307c4.142 0 7.5 3.358 7.5 7.5v85.24c-.001 17.452-14.201 31.652-31.654 31.652zm-40.318-48.307c-9.183 0-16.653 7.471-16.653 16.653s7.471 16.653 16.653 16.653h40.317c9.183 0 16.653-7.471 16.653-16.653v-77.74h-33.307v53.586c0 4.142-3.358 7.5-7.5 7.5h-16.163z" fill="#e207b9"/><path d="m187.057 507.603h-40.317c-17.454 0-31.653-14.2-31.653-31.653s14.2-31.653 31.653-31.653h8.664v-53.586c0-4.142 3.358-7.5 7.5-7.5h48.307c4.142 0 7.5 3.358 7.5 7.5v85.24c-.001 17.452-14.201 31.652-31.654 31.652zm-40.318-48.307c-9.183 0-16.653 7.471-16.653 16.653s7.471 16.653 16.653 16.653h40.317c9.183 0 16.653-7.471 16.653-16.653v-77.74h-33.307v53.586c0 4.142-3.358 7.5-7.5 7.5h-16.163z" fill="#e207b9"/><path d="m162.903 390.709h48.307v32.276h-48.307z" fill="#e207b9"/><path d="m275.315 390.709h48.307v32.276h-48.307z" fill="#e207b9"/><path d="m234.294 93.694c6.978 0 13.697 1.104 20 3.135v-84.931h-40v84.931c6.303-2.031 13.022-3.135 20-3.135z" fill="#565eec"/><path d="m298.692 148.799c-4.841-31.213-31.828-55.105-64.397-55.105-32.57 0-59.556 23.892-64.397 55.105z" fill="#565eec"/><path d="m159.952 281.052h-24.042v-24.042c0-6.931-5.618-12.549-12.549-12.549h-9.902c-6.931 0-12.549 5.618-12.549 12.549v24.042h-24.042c-6.931 0-12.549 5.618-12.549 12.549v9.902c0 6.931 5.618 12.549 12.549 12.549h24.042v24.042c0 6.931 5.618 12.549 12.549 12.549h9.902c6.931 0 12.549-5.618 12.549-12.549v-24.042h24.042c6.931 0 12.549-5.618 12.549-12.549v-9.902c0-6.93-5.618-12.549-12.549-12.549z" fill="#88f8d8"/><path d="m123.361 360.143h-9.902c-11.055 0-20.049-8.994-20.049-20.049v-16.542h-16.542c-11.055 0-20.049-8.994-20.049-20.049v-9.902c0-11.055 8.994-20.049 20.049-20.049h16.542v-16.542c0-11.055 8.994-20.049 20.049-20.049h9.902c11.055 0 20.049 8.994 20.049 20.049v16.542h16.542c11.055 0 20.049 8.994 20.049 20.049v9.902c0 11.055-8.994 20.049-20.049 20.049h-16.542v16.542c0 11.055-8.993 20.049-20.049 20.049zm-46.493-71.591c-2.784 0-5.049 2.265-5.049 5.049v9.902c0 2.784 2.265 5.049 5.049 5.049h24.042c4.142 0 7.5 3.358 7.5 7.5v24.042c0 2.784 2.265 5.049 5.049 5.049h9.902c2.784 0 5.049-2.265 5.049-5.049v-24.042c0-4.142 3.358-7.5 7.5-7.5h24.042c2.784 0 5.049-2.265 5.049-5.049v-9.902c0-2.784-2.265-5.049-5.049-5.049h-24.042c-4.142 0-7.5-3.358-7.5-7.5v-24.042c0-2.784-2.265-5.049-5.049-5.049h-9.902c-2.784 0-5.049 2.265-5.049 5.049v24.042c0 4.142-3.358 7.5-7.5 7.5z" fill="#007ea8"/><circle cx="342" cy="262" r="17" fill="#88f8d8"/><circle cx="388" cy="298" r="17" fill="#88f8d8"/><path d="m342.179 287.465c-13.924 0-25.252-11.328-25.252-25.252s11.328-25.252 25.252-25.252 25.252 11.328 25.252 25.252-11.328 25.252-25.252 25.252zm0-35.504c-5.653 0-10.252 4.599-10.252 10.252s4.599 10.252 10.252 10.252 10.252-4.599 10.252-10.252-4.599-10.252-10.252-10.252z" fill="#007ea8"/><circle cx="342" cy="334" r="17" fill="#ff9bff"/><circle cx="295" cy="298" r="17" fill="#ff9bff"/><path d="m342.179 360.143c-13.924 0-25.252-11.328-25.252-25.251s11.328-25.252 25.252-25.252 25.252 11.328 25.252 25.252-11.328 25.251-25.252 25.251zm0-35.503c-5.653 0-10.252 4.599-10.252 10.252s4.599 10.251 10.252 10.251 10.252-4.599 10.252-10.251-4.599-10.252-10.252-10.252z" fill="#e207b9"/><path d="m388.518 323.804c-13.924 0-25.251-11.328-25.251-25.252s11.328-25.251 25.251-25.251 25.252 11.328 25.252 25.251-11.329 25.252-25.252 25.252zm0-35.503c-5.653 0-10.251 4.599-10.251 10.251s4.599 10.252 10.251 10.252 10.252-4.599 10.252-10.252-4.6-10.251-10.252-10.251z" fill="#007ea8"/><path d="m295.84 323.804c-13.924 0-25.252-11.328-25.252-25.252s11.328-25.251 25.252-25.251 25.252 11.328 25.252 25.251-11.328 25.252-25.252 25.252zm0-35.503c-5.653 0-10.252 4.599-10.252 10.251s4.599 10.252 10.252 10.252 10.252-4.599 10.252-10.252-4.599-10.251-10.252-10.251z" fill="#e207b9"/><circle cx="286" cy="203" r="11" fill="#2115c2"/><path d="m257.614 230.264h-46.639c-4.142 0-7.5-3.358-7.5-7.5s3.358-7.5 7.5-7.5h46.639c4.142 0 7.5 3.358 7.5 7.5s-3.358 7.5-7.5 7.5z" fill="#2115c2"/><g fill="#2115c2"><circle cx="182" cy="203" r="11"/><path d="m451.704 141.298h-43.411-103.471c-3.601-14.465-11.628-27.579-23.026-37.431-6-5.187-12.768-9.299-20.001-12.256v-79.714c0-4.142-3.358-7.5-7.5-7.5h-40c-4.142 0-7.5 3.358-7.5 7.5v79.714c-7.233 2.957-14.002 7.069-20.001 12.256-11.397 9.852-19.425 22.967-23.025 37.431h-103.473c-33.247 0-60.296 27.049-60.296 60.297v136.318c0 33.248 27.049 60.296 60.296 60.296h391.407c33.248 0 60.296-27.049 60.296-60.296v-136.318c.001-33.248-27.048-60.297-60.295-60.297zm-229.91-54.027v-67.874h25v67.873c-3.679-.64-8.172-1.077-12.5-1.077-4.344.001-8.836.44-12.5 1.078zm-25.191 27.944c21.65-18.716 53.828-18.634 75.384 0 8.088 6.992 14.039 16.047 17.251 26.083h-109.886c3.211-10.036 9.162-19.091 17.251-26.083zm-181.603 222.698v-136.318c0-24.977 20.32-45.296 45.296-45.296h347.997c24.976 0 45.296 20.32 45.296 45.296v136.318c0 24.977-20.32 45.296-45.296 45.296h-347.997c-24.976 0-45.296-20.319-45.296-45.296zm482 0c0 24.977-20.32 45.296-45.296 45.296h-3.654c12.744-11.205 20.539-27.566 20.539-45.296v-136.318c0-17.304-7.476-33.811-20.539-45.296h3.654c24.977 0 45.296 20.32 45.296 45.296z"/></g></g><g transform="matrix(0.078125 0 0 0.078125 155 330)" id="L1_34"><path d="m210.855 312.938c-10.443-10.444-27.377-10.451-37.82-.007l-51.995 51.995c-10.444 10.444-10.443 27.384 0 37.828l6.878 6.878 89.815-89.815z" fill="#ff63ed"/><path d="m122.214 359.382h127.017v36.475h-127.017z" transform="matrix(0.707 -0.707 0.707 0.707 -212.62 241.928)" fill="#ff63ed"/><path d="m250.21 352.292-6.684-6.684-89.815 89.815 6 6c7.066 7.066 15.391 12.179 24.28 15.32l81.056-81.057c-3.061-8.55-8.002-16.559-14.837-23.394z" fill="#ff63ed"/><path d="m265.047 375.685-81.056 81.057c22.126 7.822 47.666 3.371 65.514-13.944 18.509-17.949 23.688-44.403 15.542-67.113z" fill="#ff63ed"/><path d="m472.478 128.471c-19.951-20.017-10.726-48.391-2.321-65.135 4.412-8.79 2.734-19.406-4.22-26.36l-22.814-22.814c-8.89-8.89-23.302-8.89-32.192 0-25.882 25.881-384.37 384.369-396.778 396.777-8.89 8.89-8.89 23.303 0 32.192l22.814 22.814c6.954 6.954 17.57 8.632 26.36 4.22 16.744-8.405 45.118-17.629 65.135 2.322 41.941 41.801 109.13 43.108 151.001 1.237l1.184-1.184c36.103-36.102 41.18-91.482 15.231-133.006-7.691-12.308-6.12-28.237 4.142-38.499l1.007-1.007c10.262-10.262 26.192-11.833 38.499-4.142 41.524 25.949 96.903 20.872 133.006-15.231l1.184-1.184c41.87-41.87 40.563-109.06-1.238-151z" fill="#ffceff"/><path d="m456.733 183.999-81.056 81.056c22.709 8.146 49.164 2.967 67.113-15.543 17.314-17.847 21.765-43.387 13.943-65.513z" fill="#ff63ed"/><path d="m441.413 159.72-5.999-6-89.815 89.815 6.684 6.684c6.835 6.835 14.845 11.776 23.394 14.837l81.056-81.056c-3.14-8.889-8.254-17.215-15.32-24.28z" fill="#ff63ed"/><path d="m314.102 167.493h127.017v36.476h-127.017z" transform="matrix(0.707 -0.707 0.707 0.707 -20.732 321.411)" fill="#ff63ed"/><path d="m402.743 121.05c-10.443-10.444-27.384-10.444-37.827 0l-51.995 51.995c-10.444 10.443-10.436 27.377.007 37.82l6.878 6.878 89.815-89.815z" fill="#ff63ed"/><g fill="#ff9900"><path d="m210.855 312.938c-10.443-10.444-27.377-10.451-37.82-.007l-51.995 51.995c-10.444 10.444-10.443 27.384 0 37.828l6.878 6.878 89.815-89.815z"/><path d="m122.214 359.382h127.017v36.475h-127.017z" transform="matrix(0.707 -0.707 0.707 0.707 -212.62 241.928)"/><path d="m250.21 352.292-6.684-6.684-89.815 89.815 6 6c7.066 7.066 15.391 12.179 24.28 15.32l81.056-81.057c-3.061-8.55-8.002-16.559-14.837-23.394z"/><path d="m265.047 375.685-81.056 81.057c22.126 7.822 47.666 3.371 65.514-13.944 18.509-17.949 23.688-44.403 15.542-67.113z"/><path d="m456.733 183.999-81.056 81.056c22.709 8.146 49.164 2.967 67.113-15.543 17.314-17.847 21.765-43.387 13.943-65.513z"/><path d="m441.413 159.72-5.999-6-89.815 89.815 6.684 6.684c6.835 6.835 14.845 11.776 23.394 14.837l81.056-81.056c-3.14-8.889-8.254-17.215-15.32-24.28z"/><path d="m314.102 167.493h127.017v36.476h-127.017z" transform="matrix(0.707 -0.707 0.707 0.707 -20.732 321.411)"/><path d="m402.743 121.05c-10.443-10.444-27.384-10.444-37.827 0l-51.995 51.995c-10.444 10.443-10.436 27.377.007 37.82l6.878 6.878 89.815-89.815z"/></g><path d="m272.109 373.159c0-.001 0-.002-.001-.002 0-.001-.001-.002-.001-.003v-.001s0-.001-.001-.001c-3.544-9.894-9.126-18.697-16.593-26.164-4.67-4.67-34.7-34.7-39.354-39.354-13.353-13.352-35.078-13.356-48.426-.008l-51.995 51.996c-13.353 13.353-13.353 35.081 0 48.434 5.537 5.537 3.312 3.31 38.67 38.669 13.942 13.943 32.669 21.29 51.364 21.29 18.068 0 35.59-6.868 48.953-19.832 19.962-19.357 26.786-48.805 17.384-75.024zm-133.583 36.472 79.208-79.208 15.185 15.186-79.209 79.208zm-12.182-39.403 51.995-51.995c7.5-7.5 19.706-7.5 27.214.008l1.575 1.574-79.208 79.208-1.575-1.575c-7.506-7.504-7.506-19.715-.001-27.22zm37.974 65.195 79.208-79.208 1.38 1.381c4.776 4.775 8.574 10.242 11.328 16.296-9.042 9.042-65.056 65.056-74.058 74.059-6.39-2.85-12.147-6.817-17.162-11.832zm79.964 1.992c-12.212 11.847-28.867 17.211-45.516 15.158 6.794-6.794 56.517-56.517 62.112-62.112 2.056 17.157-3.901 34.644-16.596 46.954z" fill="#f95116"/><path d="m123.168 477.8c-16.148-16.095-39.626-9.392-56.476-.931-11.712 5.878-25.789 3.619-35.028-5.62l-22.814-22.814c-11.8-11.8-11.8-31 0-42.799 12.408-12.409 370.896-370.897 396.778-396.778 11.801-11.799 30.999-11.798 42.798 0l22.814 22.814c9.24 9.24 11.498 23.316 5.62 35.028-8.459 16.851-15.163 40.329.93 56.477v-.001c44.886 45.035 45.917 116.909 1.228 161.6l-1.184 1.184c-38.182 38.181-97.382 44.347-142.283 16.287-9.471-5.918-21.487-4.649-29.221 3.085l-1.007 1.008c-7.734 7.734-9.003 19.75-3.085 29.22 28.054 44.895 21.901 104.095-16.288 142.284l-1.184 1.184c-45.333 45.333-117.279 42.941-161.598-1.228zm-24.54-24.765c13.723 0 25.682 4.726 35.128 14.139 38.801 38.673 101.223 40.427 140.404 1.245l1.184-1.184c34.299-34.297 37.768-85.971 14.174-123.727-9.641-15.429-7.503-35.075 5.199-47.777l1.007-1.007c12.702-12.702 32.348-14.839 47.776-5.199 37.748 23.589 89.415 20.139 123.728-14.174l1.184-1.184c39.044-39.044 37.562-101.467-1.246-140.403-17.478-17.537-18.796-43.744-3.712-73.794 2.973-5.923 1.839-13.033-2.82-17.692l-22.814-22.814c-5.951-5.951-15.634-5.951-21.585 0-25.883 25.883-384.37 384.37-396.779 396.779-5.951 5.951-5.951 15.634 0 21.585l22.814 22.814c4.659 4.66 11.77 5.791 17.692 2.821 13.865-6.96 26.912-10.428 38.666-10.428z" fill="#e207b9"/><path d="m463.804 181.5c-.001-.002-.002-.004-.003-.006-3.624-10.254-9.372-19.365-17.085-27.077-.547-.549-38.265-38.265-38.671-38.671v.001c-13.379-13.381-35.05-13.387-48.434-.001l-51.995 51.995c-13.382 13.382-13.376 35.043.007 48.427 4.654 4.654 34.684 34.684 39.354 39.354 13.773 13.771 31.962 20.76 50.134 20.76 18.92 0 37.475-7.538 51.058-21.547 18.775-19.349 24.765-47.411 15.635-73.235zm-145.572 24.061c-7.518-7.517-7.53-19.691-.007-27.213l51.995-51.996c7.521-7.519 19.7-7.522 27.22 0v.001l1.575 1.574-79.208 79.208zm27.367 27.368-15.185-15.186 79.208-79.208 15.185 15.185zm11.987 11.986-1.38-1.38 79.208-79.209.696.696v.001c5.015 5.015 8.982 10.771 11.831 17.161l-74.059 74.059c-6.052-2.753-11.519-6.551-16.296-11.328zm79.819-.623c-12.309 12.694-29.798 18.649-46.953 16.595l62.111-62.111c2.059 16.647-3.308 33.302-15.158 45.516z" fill="#f95116"/></g><g transform="matrix(0.078125 0 0 0.078125 242.5 67.5)" id="L1_35"><path d="m434.305 319.174v49.732c0 26.207-10.411 51.333-28.94 69.863l-7.538 7.538c-3.754-1.652-7.898-2.583-12.263-2.583h-75.809z" fill="#ffd600"/><path d="m397.825 453.807c-1.02 0-2.047-.208-3.02-.636-2.936-1.292-6.045-1.947-9.241-1.947h-75.809c-3.033 0-5.769-1.827-6.929-4.63-1.161-2.803-.52-6.028 1.625-8.174l124.55-124.55c2.146-2.145 5.371-2.788 8.174-1.625 2.803 1.16 4.63 3.896 4.63 6.929v49.731c0 28.393-11.058 55.088-31.137 75.167l-7.538 7.538c-1.436 1.436-3.355 2.197-5.305 2.197zm-69.963-17.583h57.702c3.517 0 6.968.479 10.313 1.427l4.185-4.186c17.246-17.245 26.744-40.174 26.744-64.56v-31.625z" fill="#ff9900"/><path d="m434.305 243.755v75.419l-124.549 124.55h-75.419z" fill="#ff63ed"/><path d="m425.326 101.938-327.16 327.16c-13.204-17.168-20.471-38.3-20.471-60.192v-225.805c0-26.207 10.411-51.343 28.94-69.873l7.538-7.538c3.754 1.662 7.898 2.583 12.263 2.583h259.13c4.365 0 8.509-.921 12.263-2.583l7.538 7.538c8.377 8.389 15.104 18.129 19.959 28.71z" fill="#ffd600"/><circle cx="280" cy="161" r="12" fill="#ff9900"/><path d="m247.408 191.053h-53.856c-4.143 0-7.5-3.357-7.5-7.5s3.357-7.5 7.5-7.5h53.856c4.143 0 7.5 3.357 7.5 7.5s-3.357 7.5-7.5 7.5z" fill="#ff9900"/><circle cx="160" cy="161" r="12" fill="#ff9900"/><path d="m98.166 436.599c-.161 0-.323-.005-.486-.016-2.153-.14-4.143-1.201-5.459-2.912-14.204-18.468-22.026-41.469-22.026-64.766v-225.804c0-28.399 11.059-55.098 31.138-75.176l7.537-7.538c2.19-2.191 5.503-2.809 8.339-1.555 2.91 1.287 6.015 1.94 9.228 1.94h259.129c3.213 0 6.318-.653 9.228-1.94 2.834-1.253 6.147-.637 8.339 1.555l7.538 7.538c8.963 8.975 16.187 19.364 21.474 30.886 1.309 2.851.704 6.214-1.513 8.432l-327.16 327.16c-1.413 1.41-3.324 2.196-5.306 2.196zm17.954-362.249-4.182 4.183c-17.246 17.245-26.744 40.176-26.744 64.568v225.805c0 17.133 4.927 34.08 14.003 48.556l317.027-317.027c-4.264-8.066-9.687-15.418-16.166-21.905l-4.179-4.179c-3.336.945-6.788 1.423-10.315 1.423h-259.128c-3.528-.002-6.98-.479-10.316-1.424z" fill="#ff9900"/><path d="m434.305 168.357v75.398l-199.968 199.969h-75.398z" fill="#ffffff"/><path d="m434.305 143.101v25.256l-275.366 275.367h-32.504c-4.365 0-8.509.931-12.263 2.583l-7.538-7.538c-3.053-3.053-5.876-6.287-8.469-9.67l327.16-327.16c5.857 12.792 8.98 26.817 8.98 41.162z" fill="#ff63ed"/><path d="m432.146 98.816c-1.022-2.233-3.073-3.824-5.491-4.26-2.416-.433-4.895.342-6.632 2.078l-327.16 327.16c-2.66 2.661-2.938 6.88-.648 9.866 6.207 8.1 11.027 12.144 16.655 17.949 2.199 2.198 5.508 2.801 8.325 1.561 2.936-1.292 6.045-1.947 9.241-1.947h183.32c1.989 0 3.896-.79 5.304-2.196l124.55-124.55c1.406-1.407 2.196-3.314 2.196-5.304v-75.418-75.398-25.257c0-15.382-3.25-30.282-9.66-44.284zm-5.34 141.832-195.576 195.576h-54.184l249.759-249.759v54.183zm-310.683 197.002c-3.458-3.498-5.156-5.042-7.838-8.064l314.217-314.217c2.859 8.941 4.304 18.229 4.304 27.731v22.149l-270.974 270.975h-29.396c-3.517 0-6.968.478-10.313 1.426zm190.526-1.426h-54.204l174.36-174.36v54.204z" fill="#e207b9"/><path d="m385.561 7.5h-259.122c-16.783 0-30.389 13.605-30.389 30.389 0 16.783 13.605 30.389 30.389 30.389h259.122c16.783 0 30.389-13.605 30.389-30.389 0-16.784-13.606-30.389-30.389-30.389z" fill="#7181ff"/><path d="m385.561 504.5h-259.122c-16.783 0-30.389-13.605-30.389-30.389 0-16.783 13.605-30.389 30.389-30.389h259.122c16.783 0 30.389 13.605 30.389 30.389 0 16.784-13.606 30.389-30.389 30.389z" fill="#7181ff"/><path d="m385.562 75.777h-259.124c-20.892 0-37.888-16.997-37.888-37.889s16.997-37.888 37.888-37.888h259.123c20.892 0 37.888 16.997 37.888 37.889s-16.996 37.888-37.887 37.888zm-259.124-60.777c-12.62 0-22.888 10.268-22.888 22.889s10.268 22.889 22.888 22.889h259.123c12.62 0 22.888-10.268 22.888-22.889s-10.267-22.889-22.887-22.889z" fill="#2115c2"/><path d="m385.562 512h-259.124c-20.892 0-37.888-16.997-37.888-37.889s16.996-37.889 37.888-37.889h259.123c20.892 0 37.888 16.997 37.888 37.889s-16.996 37.889-37.887 37.889zm-259.124-60.777c-12.62 0-22.888 10.268-22.888 22.889s10.268 22.888 22.888 22.888h259.123c12.62 0 22.888-10.268 22.888-22.889s-10.268-22.889-22.888-22.889h-259.123z" fill="#2115c2"/></g><g transform="matrix(0.13671875 0 0 0.13671875 315 140)" id="L1_36"><path d="m350.736 390.009v89.212c0 13.961-11.318 25.279-25.279 25.279h-42.196c-13.961 0-25.279-11.318-25.279-25.279s11.318-25.279 25.279-25.279h16.917v-63.933z" fill="#ffd600"/><path d="m233.086 390.009v89.212c0 13.961-11.318 25.279-25.279 25.279h-42.197c-13.961 0-25.279-11.318-25.279-25.279s11.318-25.279 25.279-25.279h16.917v-63.933z" fill="#ffd600"/><path d="m325.457 512h-42.196c-18.074 0-32.778-14.705-32.778-32.779 0-18.075 14.704-32.779 32.778-32.779h9.418v-56.433c0-4.142 3.357-7.5 7.5-7.5h50.558c4.143 0 7.5 3.358 7.5 7.5v89.212c-.001 18.074-14.706 32.779-32.78 32.779zm-42.196-50.558c-9.803 0-17.778 7.976-17.778 17.779s7.976 17.779 17.778 17.779h42.196c9.804 0 17.779-7.976 17.779-17.779v-81.712h-35.558v56.433c0 4.142-3.357 7.5-7.5 7.5z" fill="#ff9900"/><path d="m207.807 512h-42.197c-18.074 0-32.779-14.705-32.779-32.779 0-18.075 14.705-32.779 32.779-32.779h9.417v-56.433c0-4.142 3.357-7.5 7.5-7.5h50.559c4.143 0 7.5 3.358 7.5 7.5v89.212c0 18.074-14.705 32.779-32.779 32.779zm-42.197-50.558c-9.804 0-17.779 7.976-17.779 17.779s7.976 17.779 17.779 17.779h42.196c9.804 0 17.779-7.976 17.779-17.779v-81.712h-35.559v56.433c0 4.142-3.357 7.5-7.5 7.5z" fill="#ff9900"/><g fill="#ff9900"><path d="m182.528 390.009h50.558v33.78h-50.558z"/><path d="m300.178 390.009h50.558v33.78h-50.558z"/><path d="m454.059 64.637c-38.388-27.526-102.005-57.137-198.059-57.137s-159.671 29.611-198.059 57.137c-29.947 21.475-47.649 56.112-47.649 92.963v159.264c0 40.397 32.748 73.144 73.144 73.144h345.128c40.397 0 73.144-32.748 73.144-73.144v-159.264c0-36.851-17.702-71.488-47.649-92.963zm-105.311 27.786c-3.875 13.921-18.3 22.067-32.223 18.19-18.29-5.091-38.654-7.673-60.525-7.673-21.874 0-42.239 2.582-60.53 7.674-13.92 3.876-28.348-4.267-32.224-18.189-3.876-13.921 4.268-28.348 18.189-32.224 22.86-6.364 47.948-9.591 74.565-9.591 26.614 0 51.699 3.226 74.558 9.589 13.92 3.876 22.065 18.303 18.19 32.224z"/></g><path d="m343.116 155.706h-174.232c-16.565 0-29.994 13.429-29.994 29.994v110.807c0 16.565 13.429 29.994 29.994 29.994h174.232c16.565 0 29.993-13.429 29.993-29.994v-110.808c0-16.565-13.428-29.993-29.993-29.993z" fill="#88f8d8"/><g fill="#ff9900"><path d="m92.882 173.997c0-10.102-8.189-18.291-18.291-18.291-10.102 0-18.291 8.189-18.291 18.291v31.398h36.582z"/><path d="m56.3 308.209c0 10.102 8.189 18.291 18.291 18.291 10.102 0 18.291-8.189 18.291-18.291v-74.206h-36.582z"/></g><path d="m92.882 205.395h-36.582c-7.9 0-14.304 6.404-14.304 14.304s6.404 14.304 14.304 14.304h36.582c7.9 0 14.304-6.404 14.304-14.304s-6.404-14.304-14.304-14.304z" fill="#17d9c3"/><g fill="#ff9900"><path d="m455.7 308.209c0 10.102-8.189 18.291-18.291 18.291-10.102 0-18.291-8.189-18.291-18.291v-51.398h36.582z"/><path d="m419.118 173.997c0-10.102 8.189-18.291 18.291-18.291 10.102 0 18.291 8.189 18.291 18.291v54.206h-36.582z"/></g><path d="m455.7 256.811h-36.582c-7.9 0-14.304-6.404-14.304-14.304s6.404-14.304 14.304-14.304h36.582c7.9 0 14.304 6.404 14.304 14.304s-6.404 14.304-14.304 14.304z" fill="#17d9c3"/><path d="m428.563 397.509h-345.126c-44.468 0-80.645-36.177-80.645-80.645v-159.264c0-39.227 18.982-76.257 50.779-99.058 37.243-26.707 102.596-58.542 202.429-58.542s165.186 31.835 202.429 58.542c31.797 22.8 50.779 59.831 50.779 99.058v159.264c0 44.468-36.177 80.645-80.645 80.645zm-172.563-382.509c-95.848 0-158.231 30.308-193.688 55.732-27.877 19.99-44.52 52.464-44.52 86.868v159.264c0 36.197 29.448 65.645 65.645 65.645h345.127c36.196 0 65.645-29.448 65.645-65.645v-159.264c0-34.404-16.643-66.878-44.52-86.868-35.458-25.424-97.841-55.732-193.689-55.732zm-67.601 104.088c-5.723 0-11.376-1.473-16.495-4.363-7.831-4.42-13.473-11.625-15.885-20.288-4.979-17.883 5.52-36.482 23.402-41.461 23.516-6.547 49.28-9.866 76.577-9.866 27.293 0 53.055 3.319 76.569 9.864 17.884 4.978 28.383 23.577 23.405 41.46-2.412 8.663-8.053 15.868-15.882 20.289-7.831 4.421-16.918 5.526-25.579 3.115-17.634-4.909-37.32-7.397-58.514-7.397s-40.883 2.489-58.519 7.398c-2.997.836-6.048 1.249-9.079 1.249zm67.6-60.978c-25.938 0-50.349 3.135-72.554 9.316-9.915 2.761-15.735 13.073-12.975 22.987 1.337 4.803 4.465 8.798 8.807 11.249 4.341 2.45 9.377 3.064 14.18 1.727 18.945-5.274 39.988-7.948 62.542-7.948 22.553 0 43.593 2.674 62.537 7.947 4.804 1.337 9.84.724 14.181-1.727s7.469-6.446 8.806-11.25c2.76-9.915-3.061-20.227-12.976-22.987-22.206-6.18-46.614-9.314-72.548-9.314zm92.749 34.313h.01z" fill="#f95116"/><path d="m343.116 334h-174.232c-20.674 0-37.493-16.819-37.493-37.494v-110.807c0-20.674 16.819-37.494 37.493-37.494h174.232c20.674 0 37.493 16.819 37.493 37.494v110.807c0 20.675-16.819 37.494-37.493 37.494zm-174.232-170.794c-12.402 0-22.493 10.091-22.493 22.494v110.807c0 12.403 10.091 22.494 22.493 22.494h174.232c12.402 0 22.493-10.091 22.493-22.494v-110.808c0-12.403-10.091-22.494-22.493-22.494h-174.232z" fill="#007ea8"/><circle cx="310" cy="236" r="11" fill="#007ea8"/><path d="m280.406 264.49h-48.813c-4.143 0-7.5-3.358-7.5-7.5s3.357-7.5 7.5-7.5h48.813c4.143 0 7.5 3.358 7.5 7.5s-3.357 7.5-7.5 7.5z" fill="#007ea8"/><circle cx="201" cy="236" r="11" fill="#007ea8"/><g><path d="m92.883 212.895h-36.583c-4.143 0-7.5-3.358-7.5-7.5v-31.398c0-14.221 11.569-25.791 25.791-25.791s25.792 11.57 25.792 25.791v31.398c0 4.142-3.358 7.5-7.5 7.5zm-29.083-15h21.583v-23.898c0-5.95-4.841-10.791-10.792-10.791-5.95 0-10.791 4.841-10.791 10.791z" fill="#f95116"/><path d="m74.591 334c-14.222 0-25.791-11.57-25.791-25.791v-74.206c0-4.142 3.357-7.5 7.5-7.5h36.583c4.143 0 7.5 3.358 7.5 7.5v74.206c0 14.221-11.57 25.791-25.792 25.791zm-10.791-92.497v66.706c0 5.95 4.841 10.791 10.791 10.791 5.951 0 10.792-4.841 10.792-10.791v-66.706z" fill="#f95116"/></g><path d="m92.883 241.503h-36.583c-12.022 0-21.804-9.781-21.804-21.804s9.781-21.804 21.804-21.804h36.583c12.022 0 21.804 9.781 21.804 21.804s-9.782 21.804-21.804 21.804zm-36.583-28.608c-3.752 0-6.804 3.052-6.804 6.804s3.052 6.804 6.804 6.804h36.583c3.752 0 6.804-3.052 6.804-6.804s-3.052-6.804-6.804-6.804z" fill="#007ea8"/><g><path d="m437.408 334c-14.222 0-25.791-11.57-25.791-25.791v-51.398c0-4.142 3.357-7.5 7.5-7.5h36.583c4.143 0 7.5 3.358 7.5 7.5v51.398c0 14.221-11.57 25.791-25.792 25.791zm-10.791-69.689v43.898c0 5.95 4.841 10.791 10.791 10.791 5.951 0 10.792-4.841 10.792-10.791v-43.898z" fill="#f95116"/><path d="m455.7 235.703h-36.583c-4.143 0-7.5-3.358-7.5-7.5v-54.206c0-14.221 11.569-25.791 25.791-25.791s25.792 11.57 25.792 25.791v54.206c0 4.142-3.357 7.5-7.5 7.5zm-29.083-15h21.583v-46.706c0-5.95-4.841-10.791-10.792-10.791-5.95 0-10.791 4.841-10.791 10.791z" fill="#f95116"/></g><path d="m455.7 264.311h-36.583c-12.022 0-21.804-9.781-21.804-21.804s9.781-21.804 21.804-21.804h36.583c12.022 0 21.804 9.781 21.804 21.804s-9.781 21.804-21.804 21.804zm-36.583-28.608c-3.752 0-6.804 3.052-6.804 6.804s3.052 6.804 6.804 6.804h36.583c3.752 0 6.804-3.052 6.804-6.804s-3.052-6.804-6.804-6.804z" fill="#007ea8"/></g><g transform="matrix(0.09765625 0 0 0.09765625 62.5 237.5)" id="L1_37"><path d="m464.532 252.734h-417.063c-23.846 0-42.387 20.746-39.718 44.442l8.99 79.834c3.683 32.708 31.347 57.432 64.262 57.432h68.038c27.27 0 51.609-17.106 60.846-42.764l6.384-17.732c4.179-11.607 15.189-19.346 27.526-19.346h24.41c12.336 0 23.347 7.739 27.526 19.346l6.384 17.732c9.237 25.658 33.576 42.764 60.846 42.764h68.038c32.915 0 60.579-24.724 64.262-57.432l8.99-79.834c2.665-23.696-15.876-44.442-39.721-44.442z" fill="#ddbeff"/><path d="m149.357 301.879h-68.67c-11.844 0-21.054 10.305-19.728 22.075l5.174 45.945c.987 8.769 8.404 15.398 17.229 15.398h63.322c8.825 0 16.241-6.629 17.229-15.398l5.174-45.945c1.323-11.77-7.886-22.075-19.73-22.075z" fill="#88f8d8"/><path d="m362.643 301.879h68.67c11.844 0 21.054 10.305 19.728 22.075l-5.174 45.945c-.987 8.769-8.404 15.398-17.229 15.398h-63.322c-8.825 0-16.241-6.629-17.229-15.398l-5.174-45.945c-1.323-11.77 7.886-22.075 19.73-22.075z" fill="#ff63ed"/><path d="m336.072 175.509c11.212 0 20.946-7.725 23.492-18.645l5.884-25.238 45.069 121.107h54.015c8.734 0 16.75 2.792 23.28 7.484l-97.392-170.501c-4.294-7.518-12.288-12.157-20.946-12.157h-33.402c-13.322 0-24.122 10.8-24.122 24.122v49.707c0 13.321 10.8 24.121 24.122 24.121z" fill="#b98eff"/><path d="m175.928 175.509c-11.212 0-20.946-7.725-23.492-18.645l-5.884-25.238-45.069 121.107h-54.015c-8.734 0-16.75 2.792-23.28 7.484l97.392-170.501c4.294-7.518 12.288-12.157 20.946-12.157h33.402c13.322 0 24.122 10.8 24.122 24.122v49.707c0 13.321-10.8 24.121-24.122 24.121z" fill="#b98eff"/><path d="m146.683 392.797h-63.323c-12.655 0-23.266-9.483-24.682-22.059l-5.173-45.944c-.87-7.729 1.603-15.489 6.786-21.288 5.183-5.8 12.617-9.126 20.395-9.126h68.67c7.778 0 15.212 3.326 20.395 9.126 5.183 5.799 7.657 13.559 6.787 21.289l-5.173 45.944c-1.417 12.574-12.028 22.058-24.682 22.058zm-65.997-83.417c-3.565 0-6.835 1.463-9.211 4.121-2.375 2.658-3.463 6.072-3.065 9.614l5.174 45.944c.561 4.981 4.763 8.737 9.776 8.737h63.322c5.012 0 9.215-3.756 9.776-8.737l5.173-45.944c.399-3.542-.689-6.956-3.065-9.614-2.375-2.658-5.646-4.121-9.211-4.121z" fill="#007ea8"/><path d="m428.64 392.797h-63.322c-12.655 0-23.265-9.483-24.682-22.059l-5.174-45.944c-.87-7.73 1.604-15.489 6.787-21.289s12.617-9.126 20.395-9.126h68.671c7.778 0 15.212 3.326 20.395 9.126 5.183 5.799 7.656 13.559 6.786 21.288l-5.173 45.944c-1.417 12.576-12.028 22.06-24.683 22.06zm-65.996-83.417c-3.565 0-6.836 1.463-9.211 4.121s-3.463 6.072-3.065 9.614l5.173 45.944c.561 4.981 4.764 8.737 9.776 8.737h63.322c5.012 0 9.215-3.756 9.776-8.737l5.173-45.944c.399-3.542-.689-6.956-3.064-9.614-2.376-2.658-5.646-4.121-9.211-4.121z" fill="#e207b9"/><path d="m499.926 261.071c-1.945-2.176-4.082-4.139-6.359-5.899l-96.635-169.176c-5.615-9.831-16.137-15.938-27.458-15.938h-33.403c-17.436 0-31.622 14.185-31.622 31.622v49.707c0 17.436 14.185 31.622 31.622 31.622 14.778 0 27.441-10.051 30.796-24.441l.232-.997 32.623 87.663h-287.445l32.623-87.663.232.997c3.355 14.391 16.018 24.442 30.796 24.442 17.436 0 31.622-14.185 31.622-31.622v-49.708c0-17.436-14.185-31.622-31.622-31.622h-33.403c-11.322 0-21.843 6.107-27.458 15.938l-96.634 169.176c-2.277 1.76-4.414 3.722-6.359 5.899-8.995 10.065-13.287 23.53-11.777 36.944l8.99 79.834c4.114 36.539 34.945 64.093 71.715 64.093h68.038c30.339 0 57.626-19.179 67.902-47.724l6.384-17.732c3.098-8.605 11.323-14.386 20.469-14.386h24.41c9.145 0 17.371 5.781 20.469 14.387l6.384 17.732c10.276 28.545 37.564 47.724 67.902 47.724h68.038c36.77 0 67.601-27.554 71.715-64.093l8.99-79.834c1.51-13.415-2.782-26.88-11.777-36.945zm-127.449-132.061c-1.154-3.101-4.204-5.078-7.506-4.869-3.302.21-6.076 2.56-6.828 5.782l-5.884 25.239c-1.763 7.564-8.42 12.847-16.187 12.847-9.165 0-16.621-7.456-16.621-16.621v-49.708c0-9.165 7.456-16.621 16.621-16.621h33.403c5.951 0 11.481 3.21 14.433 8.377l86.945 152.213c-1.301-.173-4.12-.416-6.32-.416h-48.803zm-331.329 116.639 86.945-152.213c2.951-5.167 8.482-8.377 14.432-8.377h33.403c9.165 0 16.621 7.456 16.621 16.621v49.707c0 9.165-7.456 16.621-16.621 16.621-7.768 0-14.424-5.283-16.187-12.847l-5.884-25.238c-.751-3.222-3.525-5.571-6.828-5.782-3.302-.209-6.352 1.768-7.506 4.869l-43.252 116.224h-48.803c-1.983 0-4.491.173-6.32.415zm455.648 50.687-8.99 79.834c-3.259 28.944-27.682 50.771-56.809 50.771h-68.037c-24.033 0-45.648-15.192-53.789-37.805l-6.384-17.731c-5.234-14.538-19.131-24.306-34.582-24.306h-24.41c-15.452 0-29.349 9.768-34.582 24.306l-6.384 17.732c-8.14 22.612-29.756 37.805-53.789 37.805h-68.038c-29.127 0-53.55-21.827-56.809-50.771l-8.99-79.834c-1.034-9.175 1.903-18.385 8.055-25.27 6.239-6.981 15.177-10.833 24.21-10.833h417.063c9.033 0 17.971 3.852 24.21 10.833 6.153 6.884 9.089 16.094 8.055 25.269z" fill="#6d00ca"/></g><g transform="matrix(0.17578125 0 0 0.17578125 217.5 217.5)" id="L1_38"><path d="m451.704 15.848h-43.411c29.159 0 52.796 23.638 52.796 52.796v265.319c0 29.159-23.638 52.796-52.796 52.796h43.411c29.159 0 52.796-23.638 52.796-52.796v-265.319c0-29.158-23.638-52.796-52.796-52.796z" fill="#0eb4bb"/><path d="m323.622 386.759v85.24c0 13.339-10.814 24.153-24.153 24.153h-40.317c-13.339 0-24.153-10.814-24.153-24.153s10.814-24.153 24.153-24.153h16.164v-61.086h48.306z" fill="#9448f5"/><path d="m211.21 386.759v85.24c0 13.339-10.814 24.153-24.153 24.153h-40.317c-13.339 0-24.153-10.814-24.153-24.153s10.814-24.153 24.153-24.153h16.164v-61.086h48.306z" fill="#9448f5"/><path d="m299.469 503.652h-40.317c-17.454 0-31.653-14.199-31.653-31.653s14.2-31.653 31.653-31.653h8.664v-53.587c0-4.143 3.358-7.5 7.5-7.5h48.307c4.142 0 7.5 3.357 7.5 7.5v85.24c-.001 17.454-14.201 31.653-31.654 31.653zm-40.318-48.306c-9.183 0-16.653 7.471-16.653 16.653s7.471 16.653 16.653 16.653h40.317c9.183 0 16.653-7.471 16.653-16.653v-77.74h-33.307v53.587c0 4.143-3.358 7.5-7.5 7.5z" fill="#6d00ca"/><path d="m187.057 503.652h-40.317c-17.454 0-31.653-14.199-31.653-31.653s14.2-31.653 31.653-31.653h8.664v-53.587c0-4.143 3.358-7.5 7.5-7.5h48.307c4.142 0 7.5 3.357 7.5 7.5v85.24c-.001 17.454-14.201 31.653-31.654 31.653zm-40.318-48.306c-9.183 0-16.653 7.471-16.653 16.653s7.471 16.653 16.653 16.653h40.317c9.183 0 16.653-7.471 16.653-16.653v-77.74h-33.307v53.587c0 4.143-3.358 7.5-7.5 7.5z" fill="#6d00ca"/><path d="m162.903 386.759h48.307v32.276h-48.307z" fill="#6d00ca"/><path d="m275.315 386.759h48.307v32.276h-48.307z" fill="#6d00ca"/><path d="m406.09 116.08v-45.23h-343.59v45.23h-55v217.88c0 29.16 23.64 52.8 52.8 52.8h347.99c29.16 0 52.8-23.64 52.8-52.8v-217.88z" fill="#88f8d8"/><path d="m379.05 169.091h-289.51c-14.934 0-27.04 12.106-27.04 27.04v110.287c0 14.934 12.106 27.04 27.04 27.04h289.51c14.934 0 27.04-12.106 27.04-27.04v-110.287c0-14.934-12.106-27.04-27.04-27.04z" fill="#9448f5"/><g fill="#ddbeff"><path d="m152.657 174.952c-30.295 12.108-51.709 41.705-51.709 76.322 0 34.617 21.414 64.214 51.709 76.322z"/><path d="m315.933 174.952v152.645c30.295-12.108 51.709-41.705 51.709-76.322 0-34.618-21.414-64.215-51.709-76.323z"/></g><g><path d="m152.657 335.097c-.94 0-1.885-.177-2.783-.536-34.277-13.699-56.425-46.392-56.425-83.286 0-36.896 22.148-69.588 56.426-83.287 2.311-.922 4.928-.64 6.989.755 2.061 1.396 3.294 3.722 3.294 6.21v152.645c0 2.488-1.234 4.814-3.294 6.21-1.26.851-2.729 1.289-4.207 1.289zm-7.5-148.145c-22.616 13.282-36.709 37.465-36.709 64.322 0 26.856 14.093 51.039 36.709 64.322z" fill="#6d00ca"/><path d="m315.933 335.097c-1.479 0-2.947-.438-4.206-1.29-2.06-1.396-3.294-3.722-3.294-6.21v-152.645c0-2.488 1.234-4.814 3.294-6.21 2.061-1.395 4.679-1.678 6.989-.755 34.277 13.699 56.426 46.392 56.426 83.287s-22.148 69.587-56.425 83.286c-.899.36-1.843.537-2.784.537zm7.5-148.145v128.645c22.616-13.283 36.709-37.466 36.709-64.322 0-26.858-14.094-51.041-36.709-64.323z" fill="#6d00ca"/></g><path d="m152.66 228.8h163.27v104.66h-163.27z" fill="#ffff6f"/><path d="m89.54 176.591c-10.774 0-19.54 8.766-19.54 19.54v110.287c0 10.774 8.766 19.54 19.54 19.54h55.62l90.96 2.888 87.502-2.888h55.428c10.774 0 19.54-8.766 19.54-19.54v-110.287c0-10.774-8.766-19.54-19.54-19.54h-55.618l-89.138-3.566-89.134 3.566zm289.51 164.367h-55.428l-86.671-8.122-91.791 8.122h-55.62c-19.045 0-34.54-15.494-34.54-34.54v-110.287c0-19.046 15.495-34.54 34.54-34.54h55.62l89.838 2.313 88.432-2.313h55.62c19.045 0 34.54 15.494 34.54 34.54v110.287c0 19.046-15.494 34.54-34.54 34.54z" fill="#6d00ca"/><path d="m315.93 340.96h-163.27c-4.142 0-7.5-3.357-7.5-7.5v-104.66c0-4.143 3.358-7.5 7.5-7.5h163.27c4.142 0 7.5 3.357 7.5 7.5v104.66c0 4.143-3.358 7.5-7.5 7.5zm-155.77-15h148.27v-89.66h-148.27z" fill="#ff9900"/><path d="m152.66 169.09h163.27v59.71h-163.27z" fill="#ff9900"/><path d="m315.93 236.3h-163.27c-4.142 0-7.5-3.357-7.5-7.5v-59.71c0-4.143 3.358-7.5 7.5-7.5h163.27c4.142 0 7.5 3.357 7.5 7.5v59.71c0 4.142-3.358 7.5-7.5 7.5zm-155.77-15h148.27v-44.71h-148.27z" fill="#f95116"/><path d="m271.397 272.056h-72.798c-4.142 0-7.5-3.357-7.5-7.5s3.358-7.5 7.5-7.5h72.798c4.142 0 7.5 3.357 7.5 7.5s-3.358 7.5-7.5 7.5z" fill="#ff9900"/><path d="m271.397 307.811h-72.798c-4.142 0-7.5-3.357-7.5-7.5s3.358-7.5 7.5-7.5h72.798c4.142 0 7.5 3.357 7.5 7.5s-3.358 7.5-7.5 7.5z" fill="#ff9900"/><circle cx="290" cy="111" r="11" fill="#007ea8"/><path d="m259.835 139.948h-49.675c-4.142 0-7.5-3.357-7.5-7.5s3.358-7.5 7.5-7.5h49.675c4.142 0 7.5 3.357 7.5 7.5s-3.357 7.5-7.5 7.5z" fill="#007ea8"/><circle cx="179" cy="111" r="11" fill="#007ea8"/><path d="m461.09 68.64v47.44h-55v-45.23h-343.59v45.23h-55v-47.44c0-29.15 23.64-52.79 52.8-52.79h347.99c29.16 0 52.8 23.64 52.8 52.79z" fill="#17d9c3"/><path d="m451.704 8.348c-21.398 0-380.577.003-391.404.003-33.25 0-60.3 27.045-60.3 60.29v47.439 217.88c0 33.249 27.05 60.3 60.3 60.3 13.369 0 368.761-.001 391.404-.001 33.248 0 60.296-27.049 60.296-60.296v-265.318c0-33.249-27.049-60.297-60.296-60.297zm-436.704 60.293c0-24.973 20.321-45.29 45.3-45.29h347.99c14.595 0 27.592 6.944 35.882 17.693 5.897 7.648 9.417 17.219 9.417 27.601v39.936h-39.999v-37.73c0-4.143-3.358-7.5-7.5-7.5h-343.59c-4.142 0-7.5 3.357-7.5 7.5v37.729h-40zm0 265.319v-210.38h47.5c4.142 0 7.5-3.357 7.5-7.5v-37.729h328.59v37.729c0 4.143 3.358 7.5 7.5 7.5h47.499v210.383c0 24.975-20.314 45.296-45.296 45.296-.007 0-.013.001-.019.001h-347.974c-24.979 0-45.3-20.322-45.3-45.3zm482 .003c0 24.977-20.32 45.296-45.296 45.296h-3.654c12.965-11.403 20.54-27.875 20.54-45.299 0-9.495 0-252.673 0-265.319 0-17.295-7.478-33.817-20.54-45.293h3.654c24.977 0 45.296 20.32 45.296 45.297z" fill="#007ea8"/></g><g transform="matrix(0.0390625 0 0 0.0390625 252.5 340)" id="L1_39"><path d="m250.991 60.455c8.175 0 15.885 1.968 22.704 5.438v-58.393h-45.408v58.394c6.818-3.47 14.529-5.439 22.704-5.439z" fill="#9448f5"/><path d="m273.694 73.394c-1.164 0-2.33-.271-3.401-.815-6.028-3.067-12.521-4.623-19.302-4.623h-.001c-6.78 0-13.273 1.556-19.302 4.623-2.325 1.184-5.098 1.072-7.321-.291-2.225-1.363-3.58-3.785-3.58-6.394v-58.394c0-4.143 3.357-7.5 7.5-7.5h45.407c4.143 0 7.5 3.357 7.5 7.5v58.394c0 2.608-1.355 5.03-3.58 6.394-1.199.734-2.557 1.106-3.92 1.106zm-22.704-20.439c5.207 0 10.29.679 15.204 2.025v-39.98h-30.407v39.98c4.914-1.346 9.996-2.025 15.203-2.025z" fill="#6d00ca"/><path d="m301.138 121.873v-11.271c0-27.696-22.452-50.147-50.147-50.147-27.695 0-50.147 22.452-50.147 50.147v11.271c15.992-4.268 32.802-6.533 50.147-6.533s34.155 2.265 50.147 6.533z" fill="#ff63ed"/><path d="m439.038 360.078c-17.859 67.157-70.733 120.03-137.889 137.889 17.576-28.115 31.261-61.389 39.839-98.05 36.661-8.589 69.935-22.274 98.05-39.839z" fill="#ff9bff"/><path d="m200.833 121.873c-17.565 28.115-31.25 61.389-39.839 98.05-36.661 8.589-69.936 22.274-98.05 39.849 17.848-67.156 70.722-120.03 137.889-137.899z" fill="#ff9bff"/><path d="m340.987 399.917c-8.578 36.661-22.263 69.935-39.839 98.05-16.003 4.268-32.813 6.533-50.158 6.533s-34.155-2.265-50.158-6.533c-17.576-28.115-31.261-61.389-39.839-98.05 28.262 6.617 58.526 10.204 89.997 10.204s61.736-3.588 89.997-10.204z" fill="#ffceff"/><path d="m340.987 219.923c-28.262-6.617-58.526-10.203-89.996-10.203s-61.735 3.587-89.997 10.203c8.589-36.661 22.274-69.935 39.839-98.05h.01c15.992-4.268 32.802-6.533 50.147-6.533s34.155 2.265 50.147 6.533c17.577 28.115 31.262 61.389 39.85 98.05z" fill="#ffceff"/><path d="m351.191 309.92c0 31.481-3.586 61.745-10.204 89.997-28.262 6.617-58.526 10.204-89.996 10.204s-61.735-3.587-89.997-10.204c-6.617-28.251-10.204-58.516-10.204-89.997 0-31.47 3.586-61.735 10.204-89.997 28.262-6.617 58.526-10.203 89.997-10.203s61.735 3.587 89.996 10.203c6.617 28.262 10.204 58.527 10.204 89.997z" fill="#ff9bff"/><path d="m426.012 224.844c-24.448-50.214-69.863-88.344-124.874-102.971 17.576 28.115 31.261 61.389 39.849 98.05 22.106 5.179 42.969 12.222 62.224 20.843 9.85-2.381 17.744-8.039 22.801-15.922z" fill="#ff9bff"/><path d="m443.457 303.302h-.739c-5.669 0-10.259-3.976-11.4-9.383-3.173-15.031-14.029-26.115-29.42-29.317-5.397-1.123-9.268-5.874-9.268-11.387v-.62c0-5.615 3.839-10.385 9.219-11.497.463-.096.908-.222 1.363-.331-19.255-8.62-40.117-15.664-62.224-20.843 6.617 28.261 10.203 58.526 10.203 89.996 0 31.481-3.586 61.745-10.203 89.996 36.661-8.589 69.935-22.274 98.05-39.839v-.01c4.268-15.992 6.533-32.802 6.533-50.147 0-2.273-.044-4.536-.121-6.79-.65.112-1.316.172-1.993.172z" fill="#ffceff"/><path d="m160.994 219.924c-36.661 8.589-69.936 22.274-98.05 39.849-4.268 16.003-6.533 32.802-6.533 50.147 0 5.426.247 10.793.683 16.106.022-.102.052-.199.073-.301 1.113-5.38 5.883-9.218 11.377-9.218h.739c5.669 0 10.259 3.976 11.401 9.383 3.173 15.031 14.029 26.114 29.419 29.317 5.397 1.123 9.268 5.875 9.268 11.387v.62c0 5.615-3.839 10.385-9.219 11.498-2.532.524-4.928 1.281-7.201 2.213 18.081 7.783 37.531 14.187 58.044 18.992-6.617-28.251-10.203-58.515-10.203-89.996-.001-31.472 3.585-61.736 10.202-89.997z" fill="#ffceff"/><path d="m160.994 399.917c-20.512-4.805-39.962-11.209-58.044-18.992-10.703 4.392-18.395 13.102-21.585 24.346 25.411 45.116 68.28 79.084 119.467 92.696-17.574-28.115-31.26-61.389-39.838-98.05z" fill="#ff9bff"/><circle cx="302" cy="297" r="11" fill="#e207b9"/><path d="m274.354 324.395h-46.726c-4.143 0-7.5-3.357-7.5-7.5s3.357-7.5 7.5-7.5h46.726c4.143 0 7.5 3.357 7.5 7.5s-3.358 7.5-7.5 7.5z" fill="#e207b9"/><circle cx="198" cy="297" r="11" fill="#e207b9"/><path d="m27.839 378.733c15.047 3.177 26.138 14.053 29.327 29.469 1.113 5.38 5.883 9.219 11.519 9.219h.74c5.521 0 10.116-3.968 11.254-9.369 3.173-15.053 14.051-26.15 29.472-29.34 5.38-1.113 9.219-5.883 9.219-11.498v-.62c0-5.513-3.871-10.264-9.268-11.387-15.39-3.202-26.246-14.286-29.419-29.317-1.141-5.406-5.732-9.382-11.401-9.383h-.739c-5.494 0-10.264 3.838-11.377 9.218-3.189 15.417-14.281 26.294-29.327 29.47-5.406 1.141-9.382 5.732-9.382 11.258v1.022c0 5.525 3.976 10.116 9.382 11.258z" fill="#ffff6f"/><path d="m400.571 271.418c12.393 2.578 21.356 11.645 23.967 24.016 1.571 7.444 6.528 13.071 13.532 14.804-.025 15.27-1.888 30.397-5.537 45.02-25.184 15.359-52.705 26.637-81.647 34.423 4.975-24.789 7.804-51.771 7.804-79.762 0-26.552-2.556-53.607-7.802-79.743 12.314 3.324 24.121 7.144 37.095 12.316-1.815 2.963-2.087 6.437-2.087 10.103v.619c.001 9.016 5.844 16.367 14.675 18.204zm52.499 38.502c0-2.262-.042-4.633-.125-7.047-.073-2.166-1.081-4.194-2.763-5.562-2.892-2.352-5.788-1.064-6.69-1.064-.139-.044-5.101.405-5.938-3.555-3.841-18.194-16.036-31.223-34.254-35.014-1.91-.397-4.103-2.517-4.103-4.463v-.619c0-2.051 2.379-4.367 4.282-4.761 11.585-2.388 21.322-8.272 28.026-18.724 1.413-2.202 2.396-5.198 1.25-7.551-24.903-51.147-69.93-89.279-124.117-105.364v-5.594c0-31.787-25.86-57.647-57.647-57.647-31.786 0-57.646 25.86-57.646 57.647v5.602c-84.938 25.237-144.434 103.496-144.434 193.716 0 5.365.238 10.99.708 16.719.304 3.71 3.284 6.636 7 6.872 3.68.224 6.949-2.221 7.778-5.781.04-.154.077-.31.114-.486.531-5.375 4.915-3.667 6.864-3.667l.854.167c1.996 0 3.61 1.643 4.044 3.696 3.841 18.194 17.011 31.319 35.229 35.11 1.91.397 3.296 2.099 3.296 4.057l.001.607c0 2.052-1.332 3.76-3.239 4.154-2.872.595-5.741 1.476-8.528 2.619-12.888 5.287-23.837 16.273-27.685 29.84-.546 1.924-1.497 3.383-.517 5.125 35.029 62.189 101.42 103.048 176.161 103.048 92.008 0 171.896-62.007 195.294-149.994.005-.017.005-.034.01-.051.004-.014.009-.028.013-.042 4.487-16.846 6.762-34.338 6.762-51.993zm-202.079 92.7c-28.431 0-56.67-3.014-83.727-8.974-5.931-26.84-8.974-55.213-8.974-83.726 0-28.533 3.036-56.826 8.974-83.725 25.995-5.733 54.144-8.975 83.726-8.975 29.475 0 57.617 3.217 83.725 8.975 5.945 26.933 8.974 55.242 8.974 83.725 0 28.468-3.041 56.878-8.974 83.726-26.315 5.797-54.368 8.974-83.724 8.974zm-45.357-274.213c14.864-3.711 30.137-5.568 45.358-5.568 14.887 0 30.247 1.796 45.345 5.565 15.395 25.24 26.579 52.502 34.416 81.621-26.287-5.275-53.373-7.806-79.761-7.806-27.886 0-54.867 2.81-79.762 7.806 7.769-28.892 18.954-56.275 34.404-81.618zm211.607 95.68c-1.742 2.015-2.641 4.631-4.881 6.09-2.26 1.472-5.866 1.783-8.57 2.644-17.129-7.497-36.621-14.175-56.586-19.114-6.737-27.287-16.659-54.165-29.825-78.746 42.935 16.267 78.554 47.899 99.862 89.126zm-208.897-113.484c0-23.516 19.132-42.647 42.647-42.647s42.646 19.132 42.646 42.647v1.752c-13.312-2.864-27.928-4.515-42.646-4.515-14.495 0-29.069 1.592-42.647 4.515zm-23.752 24.366c-13.406 25.041-23.218 52.023-29.815 78.737-29.075 7.184-55.544 17.399-78.74 29.822 18.939-49.927 58.617-89.606 108.555-108.559zm-75.377 212.894c-12.393-2.578-20.998-11.152-23.609-23.523-1.906-9.027-9.521-14.658-18.648-14.658l-.813.239c-1.589 0-.743-.715-2.234-.341.027-15.249 1.889-30.367 5.536-44.987 25.537-15.584 53.224-26.792 81.65-34.433-5.172 25.772-7.805 52.689-7.805 79.761 0 27.018 2.629 53.964 7.801 79.748-9.92-2.676-19.392-5.662-29.357-9.337 3.202-3.473 2.72-8.121 2.721-13.128l-.001-.608c0-9.018-6.41-16.895-15.241-18.733zm-19.672 56.582c1.244-3.206 1.073-7.41 3.218-9.913 2.337-2.725 7.069-3.676 10.328-5.402 15.405 6.445 33.506 12.508 51.686 17.002 6.749 27.356 16.657 54.171 29.801 78.716-39.548-15.079-73.424-43.587-95.033-80.403zm116.109 87.019c-15.667-25.681-26.764-53.174-34.427-81.65 25.725 5.16 52.74 7.806 79.766 7.806 26.355 0 53.406-2.517 79.765-7.806-7.658 28.498-18.868 56.163-34.427 81.65-14.73 3.674-29.967 5.536-45.338 5.536s-30.608-1.862-45.339-5.536zm111.743-6.593c13.424-25.065 23.186-51.894 29.812-78.736 27.081-6.69 53.947-16.545 78.738-29.817-18.947 49.929-58.621 89.607-108.55 108.553z" fill="#e207b9"/><path d="m69.426 424.921h-.74c-9.108 0-17.041-6.393-18.864-15.199-2.567-12.416-11.145-21.036-23.531-23.651l.001.001c-9.028-1.905-15.334-9.553-15.334-18.597v-1.021c0-9.044 6.306-16.691 15.334-18.597 12.386-2.614 20.963-11.235 23.531-23.651 1.821-8.806 9.694-15.198 18.721-15.198h.739c9.127 0 16.832 6.306 18.738 15.333 2.611 12.371 11.217 20.945 23.609 23.523 8.831 1.838 15.24 9.715 15.24 18.73v.62c0 9.097-6.393 17.021-15.199 18.842-12.419 2.568-21.04 11.149-23.652 23.542-1.902 9.022-9.547 15.323-18.593 15.323zm-.883-100.914c-1.948 0-3.644 1.361-4.031 3.236-3.776 18.252-16.906 31.444-35.124 35.29-2.021.427-3.431 2.038-3.431 3.92v1.021c0 1.882 1.41 3.493 3.43 3.919.001.001.001.001.001.001 18.219 3.846 31.349 17.038 35.123 35.289.395 1.905 2.111 3.237 4.175 3.237h.74c1.881 0 3.491-1.405 3.915-3.417 3.842-18.226 17.035-31.361 35.292-35.138 1.906-.394 3.237-2.102 3.237-4.152v-.62c0-1.946-1.386-3.647-3.296-4.045-18.219-3.791-31.389-16.916-35.229-35.11-.434-2.053-2.066-3.432-4.063-3.432h-.739z" fill="#ff9900"/><path d="m484.161 241.076c-15.047-3.177-26.138-14.053-29.327-29.469-1.113-5.38-5.883-9.219-11.52-9.219h-.74c-5.52 0-10.116 3.968-11.254 9.369-3.173 15.053-14.051 26.15-29.472 29.34-5.38 1.113-9.219 5.883-9.219 11.497v.62c0 5.513 3.871 10.264 9.268 11.387 15.39 3.202 26.246 14.286 29.419 29.317 1.141 5.406 5.732 9.382 11.401 9.383h.739c5.494 0 10.264-3.838 11.377-9.218 3.189-15.417 14.281-26.294 29.327-29.47 5.406-1.141 9.382-5.732 9.382-11.258v-1.022c.001-5.525-3.975-10.116-9.381-11.257z" fill="#ffff6f"/><path d="m443.457 310.802h-.739c-9.127 0-16.832-6.306-18.738-15.333-2.611-12.371-11.217-20.945-23.609-23.523-8.831-1.838-15.24-9.715-15.24-18.73v-.62c0-9.095 6.392-17.02 15.198-18.842 12.42-2.568 21.041-11.149 23.653-23.542 1.901-9.022 9.547-15.323 18.593-15.323h.74c9.108 0 17.041 6.393 18.864 15.199 2.567 12.416 11.145 21.036 23.531 23.651l-.001-.001c9.028 1.905 15.334 9.553 15.334 18.597v1.021c0 9.043-6.305 16.69-15.332 18.597-12.388 2.614-20.965 11.235-23.533 23.651-1.822 8.805-9.695 15.198-18.721 15.198zm-.883-100.914c-1.881 0-3.491 1.405-3.915 3.417-3.842 18.226-17.035 31.361-35.292 35.138-1.906.395-3.237 2.102-3.237 4.152v.62c0 1.946 1.386 3.647 3.296 4.045 18.219 3.791 31.389 16.916 35.229 35.11.434 2.053 2.066 3.432 4.063 3.432h.739c1.948 0 3.644-1.361 4.031-3.236 3.776-18.253 16.906-31.444 35.124-35.289 2.02-.427 3.431-2.039 3.431-3.921v-1.021c0-1.882-1.41-3.493-3.43-3.919-.001-.001-.001-.001-.001-.001-18.219-3.846-31.349-17.038-35.123-35.289-.395-1.905-2.111-3.237-4.175-3.237z" fill="#ff9900"/></g><g transform="matrix(0.078125 0 0 0.078125 67.5 67.5)" id="L1_40"><path d="m87.722 125.628c0-30.068 24.375-54.443 54.443-54.443h-106.014c-15.824 0-28.651 12.827-28.651 28.651v29.403c0 11.307 6.668 21.512 16.975 26.163 23.544 10.624 63.247 34.23 63.247 72.606z" fill="#9448f5"/><path d="m475.849 71.185h-106.013c30.068 0 54.443 24.375 54.443 54.443v102.381c0-38.376 39.704-61.982 63.247-72.606 10.306-4.651 16.975-14.856 16.975-26.163v-29.404c-.001-15.824-12.828-28.651-28.652-28.651z" fill="#9448f5"/><path d="m87.722 235.508c-4.142 0-7.5-3.358-7.5-7.5 0-34.126-36.86-55.855-58.832-65.77-12.994-5.863-21.39-18.816-21.39-32.999v-29.403c0-19.934 16.217-36.151 36.151-36.151h106.014c4.142 0 7.5 3.358 7.5 7.5s-3.358 7.5-7.5 7.5c-25.884 0-46.943 21.059-46.943 46.943v102.38c0 4.142-3.358 7.5-7.5 7.5zm-51.571-156.823c-11.663 0-21.151 9.488-21.151 21.151v29.403c0 8.298 4.93 15.884 12.56 19.327 15.703 7.085 38.017 19.608 52.662 38.286v-61.224c0-18.746 8.372-35.575 21.571-46.943z" fill="#6d00ca"/><path d="m424.278 235.508c-4.143 0-7.5-3.358-7.5-7.5v-102.38c0-25.884-21.059-46.943-46.942-46.943-4.143 0-7.5-3.358-7.5-7.5s3.357-7.5 7.5-7.5h106.014c19.934 0 36.15 16.217 36.15 36.151v29.403c0 14.183-8.396 27.136-21.39 33-21.972 9.915-58.832 31.644-58.832 65.77 0 4.141-3.357 7.499-7.5 7.499zm-14.07-156.823c13.198 11.368 21.57 28.197 21.57 46.943v61.225c14.646-18.678 36.96-31.2 52.662-38.286 7.63-3.443 12.56-11.029 12.56-19.327v-29.404c0-11.663-9.488-21.151-21.15-21.151z" fill="#6d00ca"/><path d="m369.836 71.185h-227.672c-30.068 0-54.443 24.375-54.443 54.443v131.599c0 30.027 24.309 54.374 54.321 54.44-3.141-5.59-4.94-12.036-4.94-18.904v-142.568h235.732c2.483-.001 4.844-.518 6.989-1.441l6.516 51.496c.978 7.733-4.172 14.683-11.442 16.302v76.211c0 6.869-1.799 13.314-4.94 18.904 30.012-.066 54.321-24.413 54.321-54.44v-131.599c0-30.068-24.374-54.443-54.442-54.443z" fill="#ff63ed"/><path d="m369.957 319.167c-2.66 0-5.123-1.41-6.469-3.705-1.35-2.3-1.376-5.145-.069-7.469 2.603-4.632 3.979-9.898 3.979-15.23v-76.211c0-3.514 2.44-6.557 5.87-7.321 3.626-.807 6.1-4.338 5.632-8.04l-5.505-43.503c-.186.004-.37.006-.555.006h-228.237v135.068c0 5.331 1.376 10.598 3.979 15.23 1.306 2.325 1.28 5.168-.069 7.469-1.347 2.295-3.809 3.705-6.469 3.705-.005 0-.011 0-.017 0-34.079-.075-61.804-27.861-61.804-61.939v-131.599c0-34.155 27.788-61.943 61.943-61.943h227.671c34.155 0 61.942 27.788 61.942 61.943v131.599c0 34.079-27.726 61.865-61.805 61.939-.006.001-.011.001-.017.001zm-227.792-240.482c-25.884 0-46.943 21.059-46.943 46.943v131.599c0 21.909 15.122 40.386 35.476 45.521-.725-3.269-1.095-6.619-1.095-9.986v-142.568c0-4.142 3.358-7.5 7.5-7.5h235.733c1.391-.001 2.746-.28 4.022-.83 2.163-.932 4.639-.792 6.688.377 2.046 1.169 3.423 3.232 3.719 5.57l6.517 51.496c1.184 9.351-3.509 18.086-11.383 22.37v71.085c0 3.367-.371 6.718-1.096 9.986 20.354-5.136 35.477-23.613 35.477-45.521v-131.599c0-25.884-21.059-46.943-46.942-46.943z" fill="#e207b9"/><path d="m379.824 148.753c-2.147.925-4.512 1.442-6.999 1.442h-36.445l-6.333 50.055c-1.119 8.84 5.771 16.656 14.681 16.656h26.93c8.91 0 15.8-7.817 14.681-16.656z" fill="#9448f5"/><circle cx="358" cy="191" r="7" fill="#6d00ca"/><path d="m336.238 331.422v85.24c0 13.339-10.814 24.153-24.153 24.153h-40.317c-13.339 0-24.153-10.814-24.153-24.153s10.814-24.153 24.153-24.153h16.164v-61.086h48.306z" fill="#88f8d8"/><path d="m223.826 331.422v85.24c0 13.339-10.814 24.153-24.153 24.153h-40.317c-13.339 0-24.153-10.814-24.153-24.153s10.814-24.153 24.153-24.153h16.164v-61.086h48.306z" fill="#88f8d8"/><path d="m312.085 448.315h-40.317c-17.454 0-31.654-14.2-31.654-31.653s14.2-31.653 31.654-31.653h8.664v-53.586c0-4.142 3.357-7.5 7.5-7.5h48.307c4.143 0 7.5 3.358 7.5 7.5v85.24c-.001 17.452-14.2 31.652-31.654 31.652zm-40.317-48.307c-9.183 0-16.654 7.471-16.654 16.653s7.471 16.653 16.654 16.653h40.317c9.183 0 16.653-7.471 16.653-16.653v-77.74h-33.307v53.586c0 4.142-3.357 7.5-7.5 7.5h-16.163z" fill="#007ea8"/><path d="m199.673 448.315h-40.317c-17.454 0-31.653-14.2-31.653-31.653s14.2-31.653 31.653-31.653h8.664v-53.586c0-4.142 3.358-7.5 7.5-7.5h48.307c4.142 0 7.5 3.358 7.5 7.5v85.24c-.001 17.452-14.201 31.652-31.654 31.652zm-40.318-48.307c-9.183 0-16.653 7.471-16.653 16.653s7.471 16.653 16.653 16.653h40.317c9.183 0 16.653-7.471 16.653-16.653v-77.74h-33.305v53.586c0 4.142-3.358 7.5-7.5 7.5h-16.165z" fill="#007ea8"/><path d="m175.519 331.422h48.307v32.276h-48.307z" fill="#007ea8"/><path d="m287.931 331.422h48.307v32.276h-48.307z" fill="#007ea8"/><path d="m371.658 216.905h-26.93c-8.91 0-15.8-7.817-14.681-16.656l6.333-50.055h-197.205c-.702 0-1.392-.052-2.073-.131v142.699c0 21.351 17.309 38.66 38.66 38.66h160.476c21.351 0 38.66-17.309 38.66-38.66v-76.211c-1.041.232-2.124.354-3.24.354z" fill="#ffff6f"/><path d="m336.238 338.922h-160.476c-25.453 0-46.16-20.707-46.16-46.16v-142.699c0-2.141.915-4.179 2.514-5.603s3.73-2.095 5.856-1.847c.464.054.857.081 1.202.081h197.206c2.153 0 4.202.925 5.626 2.541s2.085 3.765 1.814 5.901l-6.333 50.055c-.267 2.109.36 4.147 1.766 5.742 1.405 1.595 3.35 2.473 5.476 2.473h26.93c.547 0 1.087-.059 1.606-.175 2.221-.496 4.548.044 6.323 1.468 1.776 1.423 2.81 3.576 2.81 5.852v76.211c-.001 25.453-20.708 46.16-46.16 46.16zm-191.636-181.228v135.068c0 17.182 13.979 31.16 31.16 31.16h160.476c17.182 0 31.159-13.978 31.159-31.16v-68.357h-22.669c-6.399 0-12.497-2.753-16.729-7.555-4.231-4.801-6.197-11.195-5.394-17.543l5.265-41.613z" fill="#ff9900"/><circle cx="307" cy="257" r="10" fill="#ff9900"/><path d="m279.03 283.776h-46.061c-4.142 0-7.5-3.358-7.5-7.5s3.358-7.5 7.5-7.5h46.061c4.143 0 7.5 3.358 7.5 7.5s-3.357 7.5-7.5 7.5z" fill="#ff9900"/><circle cx="204" cy="257" r="10" fill="#ff9900"/><path d="m372.825 114.764h-233.65c-9.784 0-17.715 7.932-17.715 17.716 0 9.784 7.931 17.715 17.715 17.715h233.65c9.784 0 17.715-7.932 17.715-17.715.001-9.785-7.931-17.716-17.715-17.716z" fill="#ddbeff"/><path d="m387.881 152.694c6.162-4.602 10.16-11.95 10.16-20.215 0-13.904-11.312-25.215-25.216-25.215h-233.65c-13.904 0-25.215 11.312-25.215 25.215s11.312 25.215 25.215 25.215h188.697l-5.265 41.613c-1.683 13.295 8.685 25.098 22.122 25.098h26.93c13.398 0 23.81-11.764 22.122-25.098zm-16.223 56.711h-26.93c-4.367 0-7.797-3.817-7.241-8.215l5.504-43.496h29.834c.189 0 .38-.002.569-.006l5.505 43.502c.557 4.402-2.878 8.215-7.241 8.215zm1.167-66.711c-10.367 0-221.447 0-233.65 0-5.633 0-10.215-4.583-10.215-10.215s4.583-10.215 10.215-10.215h233.65c5.633 0 10.216 4.583 10.216 10.215 0 5.682-4.638 10.215-10.216 10.215z" fill="#6d00ca"/></g><g transform="matrix(0.13206017156295854 -0.03538541632261026 0.03538541632261026 0.13206017156295854 132.24845425867872 150.2361846373787)" id="L1_41"><path d="m418.795 210.029v239.251c0 16.212 13.142 29.355 29.355 29.355 16.212 0 29.355-13.143 29.355-29.355v-290.564c-14.9 20.984-34.721 38.734-58.71 51.313z" fill="#9448f5"/><path d="m448.15 486.135c-20.322 0-36.855-16.533-36.855-36.855v-239.25c0-2.789 1.547-5.347 4.017-6.642 22.491-11.794 41.358-28.284 56.078-49.014 1.89-2.662 5.28-3.798 8.395-2.803 3.11.992 5.221 3.882 5.221 7.146v290.563c-.001 20.322-16.534 36.855-36.856 36.855zm-21.855-271.638v234.783c0 12.05 9.804 21.854 21.855 21.854s21.855-9.804 21.855-21.854v-269.384c-12.616 13.758-27.429 25.503-43.71 34.601z" fill="#6d00ca"/><path d="m418.795 210.029v43.94c.77-.327 1.543-.643 2.31-.979 21.062-9.249 40.051-21.892 56.4-37.235v-57.039c-14.9 20.984-34.721 38.734-58.71 51.313z" fill="#6d00ca"/><path d="m479.38 52.088c-43.832-22.362-96.609-25.687-144.746-4.548-34.491 15.146-61.326 40.557-78.634 71.178-17.308-30.622-44.143-56.032-78.634-71.179-48.136-21.138-100.914-17.813-144.746 4.549-19.488 9.942-29.312 32.312-23.445 53.389 13.195 47.405 46.459 88.514 94.596 109.653 50.913 22.358 107.008 17.329 152.229-8.627 45.222 25.956 101.316 30.985 152.229 8.627 48.136-21.138 81.401-62.248 94.596-109.653 5.867-21.077-3.957-43.447-23.445-53.389zm-284.263 121.294c-7.89 1.682-15.948 2.547-24.036 2.547-.002 0 .001 0-.001 0-15.817-.001-31.243-3.253-45.85-9.667-22.35-9.815-40.5-26.273-52.569-46.667-7.13-12.047-.331-27.39 13.36-30.308 7.89-1.682 15.949-2.547 24.036-2.547 15.816 0 31.242 3.253 45.85 9.667 22.351 9.815 40.501 26.273 52.57 46.667 7.129 12.047.331 27.39-13.36 30.308zm244.222-53.787c-12.069 20.393-30.219 36.852-52.57 46.667-14.607 6.415-30.031 9.667-45.839 9.667-.003 0-.004 0-.007 0-8.089-.001-16.148-.866-24.039-2.548-13.691-2.919-20.49-18.261-13.36-30.308 12.069-20.393 30.219-36.85 52.57-46.666 14.607-6.415 30.033-9.667 45.849-9.667 8.088 0 16.146.865 24.036 2.547 13.692 2.919 20.49 18.261 13.36 30.308z" fill="#ffff6f"/><path d="m170.838 236.802c-24.151 0-47.672-4.963-70.083-14.804-48.459-21.281-84.473-63.018-98.805-114.509-6.803-24.443 4.662-50.551 27.263-62.081 47.61-24.29 102.709-26.015 151.169-4.735 31.087 13.652 57.016 35.533 75.619 63.684 18.602-28.15 44.53-50.032 75.618-63.684 48.461-21.281 103.561-19.555 151.17 4.735 22.601 11.53 34.066 37.639 27.263 62.081-14.333 51.492-50.346 93.229-98.806 114.509-26.006 11.421-53.511 16.27-81.755 14.421-25.501-1.671-50.817-9.029-73.49-21.327-22.673 12.297-47.989 19.655-73.49 21.327-3.905.255-7.799.383-11.673.383zm85.162-37.8c1.289 0 2.577.332 3.734.995 21.637 12.419 46.097 19.837 70.738 21.452 25.811 1.69 50.962-2.745 74.742-13.187 44.321-19.463 77.266-57.66 90.386-104.797 4.899-17.598-3.357-36.395-19.628-44.696-43.584-22.235-94.001-23.825-138.322-4.362-31.921 14.018-57.898 37.533-75.12 68.002-1.331 2.354-3.825 3.81-6.53 3.81s-5.198-1.456-6.53-3.81c-17.223-30.469-43.198-53.984-75.121-68.002-44.321-19.464-94.736-17.873-138.321 4.362-16.271 8.302-24.527 27.099-19.628 44.696 13.12 47.137 46.065 85.334 90.385 104.797 23.78 10.443 48.925 14.877 74.743 13.187 24.641-1.615 49.101-9.033 70.738-21.452 1.157-.663 2.445-.995 3.734-.995zm59.321-18.285c-18.751-3.998-27.991-25.007-18.251-41.464 13.138-22.201 32.505-39.392 56.008-49.713 24.098-10.582 49.905-12.824 74.465-7.588 18.711 3.989 28.009 24.975 18.251 41.463-13.139 22.202-32.506 39.393-56.009 49.714-24.218 10.636-50.026 12.796-74.464 7.588zm43.788-77.442c-20.611 9.051-37.599 24.134-49.13 43.618-4.514 7.626-.234 17.298 8.469 19.153 21.92 4.672 44.486 2.492 65.306-6.651 20.61-9.051 37.599-24.133 49.131-43.619 4.513-7.629.232-17.299-8.469-19.153-21.249-4.529-43.876-2.759-65.307 6.652zm80.231 16.321h.01zm-317.126 53.533c-23.502-10.321-42.869-27.512-56.009-49.714-9.745-16.468-.488-37.47 18.251-41.464 24.54-5.231 50.348-3.002 74.465 7.588 23.502 10.321 42.869 27.512 56.009 49.714 9.745 16.467.488 37.47-18.251 41.463-24.534 5.233-50.351 3.003-74.465-7.587zm-34.63-76.506c-8.704 1.855-12.981 11.526-8.469 19.153 11.532 19.485 28.521 34.568 49.131 43.618 21.43 9.411 44.061 11.181 65.307 6.652 8.702-1.854 12.982-11.525 8.469-19.152-11.532-19.485-28.521-34.568-49.131-43.619-21.417-9.404-44.042-11.185-65.307-6.652z" fill="#ff9900"/></g></defs><g fi:class="KUsePattern"><pattern id="pattern_L1_32" width="350" height="350" patternUnits="userSpaceOnUse"><use xlink:href="#L1_32" x="-350" y="-350"/><use xlink:href="#L1_32" x="0" y="-350"/><use xlink:href="#L1_32" x="350" y="-350"/><use xlink:href="#L1_32" x="-350" y="0"/><use xlink:href="#L1_32" x="0" y="0"/><use xlink:href="#L1_32" x="350" y="0"/><use xlink:href="#L1_32" x="-350" y="350"/><use xlink:href="#L1_32" x="0" y="350"/><use xlink:href="#L1_32" x="350" y="350"/></pattern><rect x="0" y="0" width="100%" height="100%" fill="url(#pattern_L1_32)"/></g><g fi:class="KUsePattern"><pattern id="pattern_L1_33" width="350" height="350" patternUnits="userSpaceOnUse"><use xlink:href="#L1_33" x="-350" y="-350"/><use xlink:href="#L1_33" x="0" y="-350"/><use xlink:href="#L1_33" x="350" y="-350"/><use xlink:href="#L1_33" x="-350" y="0"/><use xlink:href="#L1_33" x="0" y="0"/><use xlink:href="#L1_33" x="350" y="0"/><use xlink:href="#L1_33" x="-350" y="350"/><use xlink:href="#L1_33" x="0" y="350"/><use xlink:href="#L1_33" x="350" y="350"/></pattern><rect x="0" y="0" width="100%" height="100%" fill="url(#pattern_L1_33)"/></g><g fi:class="KUsePattern"><pattern id="pattern_L1_34" width="350" height="350" patternUnits="userSpaceOnUse"><use xlink:href="#L1_34" x="-350" y="-350"/><use xlink:href="#L1_34" x="0" y="-350"/><use xlink:href="#L1_34" x="350" y="-350"/><use xlink:href="#L1_34" x="-350" y="0"/><use xlink:href="#L1_34" x="0" y="0"/><use xlink:href="#L1_34" x="350" y="0"/><use xlink:href="#L1_34" x="-350" y="350"/><use xlink:href="#L1_34" x="0" y="350"/><use xlink:href="#L1_34" x="350" y="350"/></pattern><rect x="0" y="0" width="100%" height="100%" fill="url(#pattern_L1_34)"/></g><g fi:class="KUsePattern"><pattern id="pattern_L1_35" width="350" height="350" patternUnits="userSpaceOnUse"><use xlink:href="#L1_35" x="-350" y="-350"/><use xlink:href="#L1_35" x="0" y="-350"/><use xlink:href="#L1_35" x="350" y="-350"/><use xlink:href="#L1_35" x="-350" y="0"/><use xlink:href="#L1_35" x="0" y="0"/><use xlink:href="#L1_35" x="350" y="0"/><use xlink:href="#L1_35" x="-350" y="350"/><use xlink:href="#L1_35" x="0" y="350"/><use xlink:href="#L1_35" x="350" y="350"/></pattern><rect x="0" y="0" width="100%" height="100%" fill="url(#pattern_L1_35)"/></g><g fi:class="KUsePattern"><pattern id="pattern_L1_36" width="350" height="350" patternUnits="userSpaceOnUse"><use xlink:href="#L1_36" x="-350" y="-350"/><use xlink:href="#L1_36" x="0" y="-350"/><use xlink:href="#L1_36" x="350" y="-350"/><use xlink:href="#L1_36" x="-350" y="0"/><use xlink:href="#L1_36" x="0" y="0"/><use xlink:href="#L1_36" x="350" y="0"/><use xlink:href="#L1_36" x="-350" y="350"/><use xlink:href="#L1_36" x="0" y="350"/><use xlink:href="#L1_36" x="350" y="350"/></pattern><rect x="0" y="0" width="100%" height="100%" fill="url(#pattern_L1_36)"/></g><g fi:class="KUsePattern"><pattern id="pattern_L1_37" width="350" height="350" patternUnits="userSpaceOnUse"><use xlink:href="#L1_37" x="-350" y="-350"/><use xlink:href="#L1_37" x="0" y="-350"/><use xlink:href="#L1_37" x="350" y="-350"/><use xlink:href="#L1_37" x="-350" y="0"/><use xlink:href="#L1_37" x="0" y="0"/><use xlink:href="#L1_37" x="350" y="0"/><use xlink:href="#L1_37" x="-350" y="350"/><use xlink:href="#L1_37" x="0" y="350"/><use xlink:href="#L1_37" x="350" y="350"/></pattern><rect x="0" y="0" width="100%" height="100%" fill="url(#pattern_L1_37)"/></g><g fi:class="KUsePattern"><pattern id="pattern_L1_38" width="350" height="350" patternUnits="userSpaceOnUse"><use xlink:href="#L1_38" x="-350" y="-350"/><use xlink:href="#L1_38" x="0" y="-350"/><use xlink:href="#L1_38" x="350" y="-350"/><use xlink:href="#L1_38" x="-350" y="0"/><use xlink:href="#L1_38" x="0" y="0"/><use xlink:href="#L1_38" x="350" y="0"/><use xlink:href="#L1_38" x="-350" y="350"/><use xlink:href="#L1_38" x="0" y="350"/><use xlink:href="#L1_38" x="350" y="350"/></pattern><rect x="0" y="0" width="100%" height="100%" fill="url(#pattern_L1_38)"/></g><g fi:class="KUsePattern"><pattern id="pattern_L1_39" width="350" height="350" patternUnits="userSpaceOnUse"><use xlink:href="#L1_39" x="-350" y="-350"/><use xlink:href="#L1_39" x="0" y="-350"/><use xlink:href="#L1_39" x="350" y="-350"/><use xlink:href="#L1_39" x="-350" y="0"/><use xlink:href="#L1_39" x="0" y="0"/><use xlink:href="#L1_39" x="350" y="0"/><use xlink:href="#L1_39" x="-350" y="350"/><use xlink:href="#L1_39" x="0" y="350"/><use xlink:href="#L1_39" x="350" y="350"/></pattern><rect x="0" y="0" width="100%" height="100%" fill="url(#pattern_L1_39)"/></g><g fi:class="KUsePattern"><pattern id="pattern_L1_40" width="350" height="350" patternUnits="userSpaceOnUse"><use xlink:href="#L1_40" x="-350" y="-350"/><use xlink:href="#L1_40" x="0" y="-350"/><use xlink:href="#L1_40" x="350" y="-350"/><use xlink:href="#L1_40" x="-350" y="0"/><use xlink:href="#L1_40" x="0" y="0"/><use xlink:href="#L1_40" x="350" y="0"/><use xlink:href="#L1_40" x="-350" y="350"/><use xlink:href="#L1_40" x="0" y="350"/><use xlink:href="#L1_40" x="350" y="350"/></pattern><rect x="0" y="0" width="100%" height="100%" fill="url(#pattern_L1_40)"/></g><g fi:class="KUsePattern"><pattern id="pattern_L1_41" width="350" height="350" patternUnits="userSpaceOnUse"><use xlink:href="#L1_41" x="-350" y="-350"/><use xlink:href="#L1_41" x="0" y="-350"/><use xlink:href="#L1_41" x="350" y="-350"/><use xlink:href="#L1_41" x="-350" y="0"/><use xlink:href="#L1_41" x="0" y="0"/><use xlink:href="#L1_41" x="350" y="0"/><use xlink:href="#L1_41" x="-350" y="350"/><use xlink:href="#L1_41" x="0" y="350"/><use xlink:href="#L1_41" x="350" y="350"/></pattern><rect x="0" y="0" width="100%" height="100%" fill="url(#pattern_L1_41)"/></g></svg>