<svg xmlns="http://www.w3.org/2000/svg" xmlns:xlink="http://www.w3.org/1999/xlink" xmlns:fi="http://pattern.flaticon.com/" x="0" y="0" width="700" height="350" viewBox="0 0 700 350"><rect x="0px" y="0px" width="100%" height="100%" opacity="1" fill="#ffffff"/><defs><path d="M165,0C74.019,0,0,74.019,0,165s74.019,165,165,165c90.982,0,165-74.019,165-165S255.982,0,165,0z" transform="matrix(0.03030303120613098 0 0 0.03030303120613098 345 82.5)" id="L1_97" fill="#bb2b59"/><g transform="matrix(0.078125 0 0 0.078125 242.5 67.5)" id="L1_95"><path d="m365.355 56.741h48.165v65.323h-48.165z" fill="#ff63ed"/><path d="m413.521 22.556v34.185h-48.165v-34.185c0-8.318 6.749-15.056 15.056-15.056h18.053c8.307 0 15.056 6.739 15.056 15.056z" fill="#ff9bff"/><path d="m398.464 0h-18.053c-12.438 0-22.556 10.118-22.556 22.556v99.509c0 4.143 3.357 7.5 7.5 7.5h48.165c4.143 0 7.5-3.357 7.5-7.5 0-11.225 0-89.315 0-99.509.001-12.438-10.118-22.556-22.556-22.556zm-25.609 22.556c0-4.166 3.39-7.556 7.556-7.556h18.053c4.167 0 7.557 3.39 7.557 7.556v26.686h-33.165v-26.686zm33.166 92.008h-33.165v-50.322h33.165z" fill="#e207b9"/><path d="m375.413 122.065c-19.139 0-34.658 15.519-34.658 34.668v254.032l-30.997 49.121c-12.22 19.371 1.7 44.615 24.611 44.615h-241.38c-22.911 0-36.83-25.244-24.611-44.615l30.997-49.121v-254.032c0-19.149 15.519-34.668 34.658-34.668z" fill="#a4bcff"/><path d="m413.517 122.067h-38.099c-19.143 0-34.662 15.519-34.662 34.662v254.04l-30.994 49.116c-12.224 19.372 1.697 44.618 24.604 44.618h66.094c26.355 0 47.719-21.365 47.719-47.719v-300.055c0-19.143-15.519-34.662-34.662-34.662z" fill="#7181ff"/><path d="m147.023 171.431h146.086v76.34h-146.086z" fill="#ffff6f"/><path d="m293.109 255.271h-146.086c-4.142 0-7.5-3.357-7.5-7.5v-76.34c0-4.143 3.358-7.5 7.5-7.5h146.086c4.143 0 7.5 3.357 7.5 7.5v76.34c0 4.143-3.358 7.5-7.5 7.5zm-138.586-15h131.086v-61.34h-131.086z" fill="#ff9900"/><g fill="#ff63ed"><circle cx="220" cy="296" r="17"/><circle cx="285" cy="296" r="17"/><circle cx="155" cy="296" r="17"/><circle cx="220" cy="365" r="17"/><circle cx="285" cy="365" r="17"/><circle cx="155" cy="365" r="17"/></g><g><path d="m220.066 321.231c-13.692 0-24.831-11.139-24.831-24.83s11.139-24.831 24.831-24.831 24.831 11.14 24.831 24.831-11.139 24.83-24.831 24.83zm0-34.661c-5.42 0-9.831 4.41-9.831 9.831 0 5.42 4.41 9.83 9.831 9.83s9.831-4.41 9.831-9.83c0-5.421-4.41-9.831-9.831-9.831z" fill="#e207b9"/><path d="m285.063 321.231c-13.691 0-24.831-11.139-24.831-24.83s11.14-24.831 24.831-24.831c13.692 0 24.831 11.14 24.831 24.831s-11.14 24.83-24.831 24.83zm0-34.661c-5.421 0-9.831 4.41-9.831 9.831 0 5.42 4.41 9.83 9.831 9.83s9.831-4.41 9.831-9.83c0-5.421-4.41-9.831-9.831-9.831z" fill="#e207b9"/><path d="m155.069 321.231c-13.692 0-24.831-11.139-24.831-24.83s11.139-24.831 24.831-24.831 24.831 11.14 24.831 24.831-11.139 24.83-24.831 24.83zm0-34.661c-5.421 0-9.831 4.41-9.831 9.831 0 5.42 4.41 9.83 9.831 9.83s9.831-4.41 9.831-9.83c0-5.421-4.41-9.831-9.831-9.831z" fill="#e207b9"/><path d="m220.066 390.099c-13.692 0-24.831-11.14-24.831-24.831s11.139-24.831 24.831-24.831 24.831 11.14 24.831 24.831-11.139 24.831-24.831 24.831zm0-34.663c-5.42 0-9.831 4.41-9.831 9.831s4.41 9.831 9.831 9.831 9.831-4.41 9.831-9.831-4.41-9.831-9.831-9.831z" fill="#e207b9"/><path d="m285.063 390.099c-13.691 0-24.831-11.14-24.831-24.831s11.14-24.831 24.831-24.831c13.692 0 24.831 11.14 24.831 24.831s-11.14 24.831-24.831 24.831zm0-34.663c-5.421 0-9.831 4.41-9.831 9.831s4.41 9.831 9.831 9.831 9.831-4.41 9.831-9.831-4.41-9.831-9.831-9.831z" fill="#e207b9"/><path d="m155.069 390.099c-13.692 0-24.831-11.14-24.831-24.831s11.139-24.831 24.831-24.831 24.831 11.14 24.831 24.831-11.139 24.831-24.831 24.831zm0-34.663c-5.421 0-9.831 4.41-9.831 9.831s4.41 9.831 9.831 9.831 9.831-4.41 9.831-9.831-4.41-9.831-9.831-9.831z" fill="#e207b9"/></g><circle cx="263" cy="202" r="9" fill="#ff9900"/><path d="m239.414 225.673h-38.696c-4.142 0-7.5-3.357-7.5-7.5s3.358-7.5 7.5-7.5h38.696c4.142 0 7.5 3.357 7.5 7.5s-3.358 7.5-7.5 7.5z" fill="#ff9900"/><circle cx="177" cy="202" r="9" fill="#ff9900"/><path d="m413.521 114.564h-38.108-241.38c-23.246 0-42.158 18.916-42.158 42.168v251.862l-29.84 47.288c-15.387 24.394 2.111 56.118 30.954 56.118h307.467c30.449 0 55.222-24.768 55.222-55.212v-300.055c0-23.252-18.912-42.169-42.157-42.169zm-279.488 15h209.162c-6.432 7.621-9.941 17.268-9.941 27.168v246.531h-226.379v-246.53c0-14.981 12.184-27.169 27.158-27.169zm-41.044 367.436c-17.013 0-27.35-18.717-18.268-33.112l28.789-45.624h223.642l-23.739 37.619c-8.188 12.98-7.458 28.879 1.391 41.117zm347.689-40.212c0 22.173-18.043 40.212-40.222 40.212h-66.088c-17.012 0-27.35-18.716-18.268-33.112l30.997-49.121c.704-1.113 1.157-2.575 1.157-4.003v-254.031c0-14.937 12.14-27.168 27.158-27.168h38.108c14.975 0 27.157 12.188 27.157 27.168v300.055z" fill="#2115c2"/></g><g transform="matrix(0.0390625 0 0 0.0390625 340 165)" id="L1_96"><path d="m408.293 390.709c29.159 0 52.796-23.638 52.796-52.796v-136.318c0-29.159-23.638-52.796-52.796-52.796h-347.997c-29.159 0-52.796 23.638-52.796 52.796v136.319c0 29.159 23.638 52.796 52.796 52.796h347.997z" fill="#a4bcff"/><path d="m451.704 148.798h-43.411c29.159 0 52.796 23.638 52.796 52.796v136.319c0 29.159-23.638 52.796-52.796 52.796h43.411c29.159 0 52.796-23.638 52.796-52.796v-136.318c0-29.159-23.638-52.797-52.796-52.797z" fill="#7181ff"/><path d="m323.622 390.709v85.24c0 13.339-10.814 24.153-24.153 24.153h-40.317c-13.339 0-24.153-10.814-24.153-24.153s10.814-24.153 24.153-24.153h16.164v-61.086h48.306z" fill="#ff63ed"/><path d="m211.21 390.709v85.24c0 13.339-10.814 24.153-24.153 24.153h-40.317c-13.339 0-24.153-10.814-24.153-24.153s10.814-24.153 24.153-24.153h16.164v-61.086h48.306z" fill="#ff63ed"/><path d="m299.469 507.603h-40.317c-17.454 0-31.653-14.2-31.653-31.653s14.2-31.653 31.653-31.653h8.664v-53.586c0-4.142 3.358-7.5 7.5-7.5h48.307c4.142 0 7.5 3.358 7.5 7.5v85.24c-.001 17.452-14.201 31.652-31.654 31.652zm-40.318-48.307c-9.183 0-16.653 7.471-16.653 16.653s7.471 16.653 16.653 16.653h40.317c9.183 0 16.653-7.471 16.653-16.653v-77.74h-33.307v53.586c0 4.142-3.358 7.5-7.5 7.5h-16.163z" fill="#e207b9"/><path d="m187.057 507.603h-40.317c-17.454 0-31.653-14.2-31.653-31.653s14.2-31.653 31.653-31.653h8.664v-53.586c0-4.142 3.358-7.5 7.5-7.5h48.307c4.142 0 7.5 3.358 7.5 7.5v85.24c-.001 17.452-14.201 31.652-31.654 31.652zm-40.318-48.307c-9.183 0-16.653 7.471-16.653 16.653s7.471 16.653 16.653 16.653h40.317c9.183 0 16.653-7.471 16.653-16.653v-77.74h-33.307v53.586c0 4.142-3.358 7.5-7.5 7.5h-16.163z" fill="#e207b9"/><path d="m162.903 390.709h48.307v32.276h-48.307z" fill="#e207b9"/><path d="m275.315 390.709h48.307v32.276h-48.307z" fill="#e207b9"/><path d="m234.294 93.694c6.978 0 13.697 1.104 20 3.135v-84.931h-40v84.931c6.303-2.031 13.022-3.135 20-3.135z" fill="#565eec"/><path d="m298.692 148.799c-4.841-31.213-31.828-55.105-64.397-55.105-32.57 0-59.556 23.892-64.397 55.105z" fill="#565eec"/><path d="m159.952 281.052h-24.042v-24.042c0-6.931-5.618-12.549-12.549-12.549h-9.902c-6.931 0-12.549 5.618-12.549 12.549v24.042h-24.042c-6.931 0-12.549 5.618-12.549 12.549v9.902c0 6.931 5.618 12.549 12.549 12.549h24.042v24.042c0 6.931 5.618 12.549 12.549 12.549h9.902c6.931 0 12.549-5.618 12.549-12.549v-24.042h24.042c6.931 0 12.549-5.618 12.549-12.549v-9.902c0-6.93-5.618-12.549-12.549-12.549z" fill="#88f8d8"/><path d="m123.361 360.143h-9.902c-11.055 0-20.049-8.994-20.049-20.049v-16.542h-16.542c-11.055 0-20.049-8.994-20.049-20.049v-9.902c0-11.055 8.994-20.049 20.049-20.049h16.542v-16.542c0-11.055 8.994-20.049 20.049-20.049h9.902c11.055 0 20.049 8.994 20.049 20.049v16.542h16.542c11.055 0 20.049 8.994 20.049 20.049v9.902c0 11.055-8.994 20.049-20.049 20.049h-16.542v16.542c0 11.055-8.993 20.049-20.049 20.049zm-46.493-71.591c-2.784 0-5.049 2.265-5.049 5.049v9.902c0 2.784 2.265 5.049 5.049 5.049h24.042c4.142 0 7.5 3.358 7.5 7.5v24.042c0 2.784 2.265 5.049 5.049 5.049h9.902c2.784 0 5.049-2.265 5.049-5.049v-24.042c0-4.142 3.358-7.5 7.5-7.5h24.042c2.784 0 5.049-2.265 5.049-5.049v-9.902c0-2.784-2.265-5.049-5.049-5.049h-24.042c-4.142 0-7.5-3.358-7.5-7.5v-24.042c0-2.784-2.265-5.049-5.049-5.049h-9.902c-2.784 0-5.049 2.265-5.049 5.049v24.042c0 4.142-3.358 7.5-7.5 7.5z" fill="#007ea8"/><circle cx="342" cy="262" r="17" fill="#88f8d8"/><circle cx="388" cy="298" r="17" fill="#88f8d8"/><path d="m342.179 287.465c-13.924 0-25.252-11.328-25.252-25.252s11.328-25.252 25.252-25.252 25.252 11.328 25.252 25.252-11.328 25.252-25.252 25.252zm0-35.504c-5.653 0-10.252 4.599-10.252 10.252s4.599 10.252 10.252 10.252 10.252-4.599 10.252-10.252-4.599-10.252-10.252-10.252z" fill="#007ea8"/><circle cx="342" cy="334" r="17" fill="#ff9bff"/><circle cx="295" cy="298" r="17" fill="#ff9bff"/><path d="m342.179 360.143c-13.924 0-25.252-11.328-25.252-25.251s11.328-25.252 25.252-25.252 25.252 11.328 25.252 25.252-11.328 25.251-25.252 25.251zm0-35.503c-5.653 0-10.252 4.599-10.252 10.252s4.599 10.251 10.252 10.251 10.252-4.599 10.252-10.251-4.599-10.252-10.252-10.252z" fill="#e207b9"/><path d="m388.518 323.804c-13.924 0-25.251-11.328-25.251-25.252s11.328-25.251 25.251-25.251 25.252 11.328 25.252 25.251-11.329 25.252-25.252 25.252zm0-35.503c-5.653 0-10.251 4.599-10.251 10.251s4.599 10.252 10.251 10.252 10.252-4.599 10.252-10.252-4.6-10.251-10.252-10.251z" fill="#007ea8"/><path d="m295.84 323.804c-13.924 0-25.252-11.328-25.252-25.252s11.328-25.251 25.252-25.251 25.252 11.328 25.252 25.251-11.328 25.252-25.252 25.252zm0-35.503c-5.653 0-10.252 4.599-10.252 10.251s4.599 10.252 10.252 10.252 10.252-4.599 10.252-10.252-4.599-10.251-10.252-10.251z" fill="#e207b9"/><circle cx="286" cy="203" r="11" fill="#2115c2"/><path d="m257.614 230.264h-46.639c-4.142 0-7.5-3.358-7.5-7.5s3.358-7.5 7.5-7.5h46.639c4.142 0 7.5 3.358 7.5 7.5s-3.358 7.5-7.5 7.5z" fill="#2115c2"/><g fill="#2115c2"><circle cx="182" cy="203" r="11"/><path d="m451.704 141.298h-43.411-103.471c-3.601-14.465-11.628-27.579-23.026-37.431-6-5.187-12.768-9.299-20.001-12.256v-79.714c0-4.142-3.358-7.5-7.5-7.5h-40c-4.142 0-7.5 3.358-7.5 7.5v79.714c-7.233 2.957-14.002 7.069-20.001 12.256-11.397 9.852-19.425 22.967-23.025 37.431h-103.473c-33.247 0-60.296 27.049-60.296 60.297v136.318c0 33.248 27.049 60.296 60.296 60.296h391.407c33.248 0 60.296-27.049 60.296-60.296v-136.318c.001-33.248-27.048-60.297-60.295-60.297zm-229.91-54.027v-67.874h25v67.873c-3.679-.64-8.172-1.077-12.5-1.077-4.344.001-8.836.44-12.5 1.078zm-25.191 27.944c21.65-18.716 53.828-18.634 75.384 0 8.088 6.992 14.039 16.047 17.251 26.083h-109.886c3.211-10.036 9.162-19.091 17.251-26.083zm-181.603 222.698v-136.318c0-24.977 20.32-45.296 45.296-45.296h347.997c24.976 0 45.296 20.32 45.296 45.296v136.318c0 24.977-20.32 45.296-45.296 45.296h-347.997c-24.976 0-45.296-20.319-45.296-45.296zm482 0c0 24.977-20.32 45.296-45.296 45.296h-3.654c12.744-11.205 20.539-27.566 20.539-45.296v-136.318c0-17.304-7.476-33.811-20.539-45.296h3.654c24.977 0 45.296 20.32 45.296 45.296z"/></g></g><path d="M165,0C74.019,0,0,74.019,0,165s74.019,165,165,165c90.982,0,165-74.019,165-165S255.982,0,165,0z" transform="matrix(0.03030303120613098 0 0 0.03030303120613098 82.5 257.5)" id="L1_98" fill="#5fc04f"/><g transform="matrix(-0.1171875 0 0 0.1171875 205 232.5)" id="L1_99"><path d="m408.293 390.709c29.159 0 52.796-23.638 52.796-52.796v-136.318c0-29.159-23.638-52.796-52.796-52.796h-347.997c-29.159 0-52.796 23.638-52.796 52.796v136.319c0 29.159 23.638 52.796 52.796 52.796h347.997z" fill="#a4bcff"/><path d="m451.704 148.798h-43.411c29.159 0 52.796 23.638 52.796 52.796v136.319c0 29.159-23.638 52.796-52.796 52.796h43.411c29.159 0 52.796-23.638 52.796-52.796v-136.318c0-29.159-23.638-52.797-52.796-52.797z" fill="#7181ff"/><path d="m323.622 390.709v85.24c0 13.339-10.814 24.153-24.153 24.153h-40.317c-13.339 0-24.153-10.814-24.153-24.153s10.814-24.153 24.153-24.153h16.164v-61.086h48.306z" fill="#ff63ed"/><path d="m211.21 390.709v85.24c0 13.339-10.814 24.153-24.153 24.153h-40.317c-13.339 0-24.153-10.814-24.153-24.153s10.814-24.153 24.153-24.153h16.164v-61.086h48.306z" fill="#ff63ed"/><path d="m299.469 507.603h-40.317c-17.454 0-31.653-14.2-31.653-31.653s14.2-31.653 31.653-31.653h8.664v-53.586c0-4.142 3.358-7.5 7.5-7.5h48.307c4.142 0 7.5 3.358 7.5 7.5v85.24c-.001 17.452-14.201 31.652-31.654 31.652zm-40.318-48.307c-9.183 0-16.653 7.471-16.653 16.653s7.471 16.653 16.653 16.653h40.317c9.183 0 16.653-7.471 16.653-16.653v-77.74h-33.307v53.586c0 4.142-3.358 7.5-7.5 7.5h-16.163z" fill="#e207b9"/><path d="m187.057 507.603h-40.317c-17.454 0-31.653-14.2-31.653-31.653s14.2-31.653 31.653-31.653h8.664v-53.586c0-4.142 3.358-7.5 7.5-7.5h48.307c4.142 0 7.5 3.358 7.5 7.5v85.24c-.001 17.452-14.201 31.652-31.654 31.652zm-40.318-48.307c-9.183 0-16.653 7.471-16.653 16.653s7.471 16.653 16.653 16.653h40.317c9.183 0 16.653-7.471 16.653-16.653v-77.74h-33.307v53.586c0 4.142-3.358 7.5-7.5 7.5h-16.163z" fill="#e207b9"/><path d="m162.903 390.709h48.307v32.276h-48.307z" fill="#e207b9"/><path d="m275.315 390.709h48.307v32.276h-48.307z" fill="#e207b9"/><path d="m234.294 93.694c6.978 0 13.697 1.104 20 3.135v-84.931h-40v84.931c6.303-2.031 13.022-3.135 20-3.135z" fill="#565eec"/><path d="m298.692 148.799c-4.841-31.213-31.828-55.105-64.397-55.105-32.57 0-59.556 23.892-64.397 55.105z" fill="#565eec"/><path d="m159.952 281.052h-24.042v-24.042c0-6.931-5.618-12.549-12.549-12.549h-9.902c-6.931 0-12.549 5.618-12.549 12.549v24.042h-24.042c-6.931 0-12.549 5.618-12.549 12.549v9.902c0 6.931 5.618 12.549 12.549 12.549h24.042v24.042c0 6.931 5.618 12.549 12.549 12.549h9.902c6.931 0 12.549-5.618 12.549-12.549v-24.042h24.042c6.931 0 12.549-5.618 12.549-12.549v-9.902c0-6.93-5.618-12.549-12.549-12.549z" fill="#88f8d8"/><path d="m123.361 360.143h-9.902c-11.055 0-20.049-8.994-20.049-20.049v-16.542h-16.542c-11.055 0-20.049-8.994-20.049-20.049v-9.902c0-11.055 8.994-20.049 20.049-20.049h16.542v-16.542c0-11.055 8.994-20.049 20.049-20.049h9.902c11.055 0 20.049 8.994 20.049 20.049v16.542h16.542c11.055 0 20.049 8.994 20.049 20.049v9.902c0 11.055-8.994 20.049-20.049 20.049h-16.542v16.542c0 11.055-8.993 20.049-20.049 20.049zm-46.493-71.591c-2.784 0-5.049 2.265-5.049 5.049v9.902c0 2.784 2.265 5.049 5.049 5.049h24.042c4.142 0 7.5 3.358 7.5 7.5v24.042c0 2.784 2.265 5.049 5.049 5.049h9.902c2.784 0 5.049-2.265 5.049-5.049v-24.042c0-4.142 3.358-7.5 7.5-7.5h24.042c2.784 0 5.049-2.265 5.049-5.049v-9.902c0-2.784-2.265-5.049-5.049-5.049h-24.042c-4.142 0-7.5-3.358-7.5-7.5v-24.042c0-2.784-2.265-5.049-5.049-5.049h-9.902c-2.784 0-5.049 2.265-5.049 5.049v24.042c0 4.142-3.358 7.5-7.5 7.5z" fill="#007ea8"/><circle cx="342" cy="262" r="17" fill="#88f8d8"/><circle cx="388" cy="298" r="17" fill="#88f8d8"/><path d="m342.179 287.465c-13.924 0-25.252-11.328-25.252-25.252s11.328-25.252 25.252-25.252 25.252 11.328 25.252 25.252-11.328 25.252-25.252 25.252zm0-35.504c-5.653 0-10.252 4.599-10.252 10.252s4.599 10.252 10.252 10.252 10.252-4.599 10.252-10.252-4.599-10.252-10.252-10.252z" fill="#007ea8"/><circle cx="342" cy="334" r="17" fill="#ff9bff"/><circle cx="295" cy="298" r="17" fill="#ff9bff"/><path d="m342.179 360.143c-13.924 0-25.252-11.328-25.252-25.251s11.328-25.252 25.252-25.252 25.252 11.328 25.252 25.252-11.328 25.251-25.252 25.251zm0-35.503c-5.653 0-10.252 4.599-10.252 10.252s4.599 10.251 10.252 10.251 10.252-4.599 10.252-10.251-4.599-10.252-10.252-10.252z" fill="#e207b9"/><path d="m388.518 323.804c-13.924 0-25.251-11.328-25.251-25.252s11.328-25.251 25.251-25.251 25.252 11.328 25.252 25.251-11.329 25.252-25.252 25.252zm0-35.503c-5.653 0-10.251 4.599-10.251 10.251s4.599 10.252 10.251 10.252 10.252-4.599 10.252-10.252-4.6-10.251-10.252-10.251z" fill="#007ea8"/><path d="m295.84 323.804c-13.924 0-25.252-11.328-25.252-25.252s11.328-25.251 25.252-25.251 25.252 11.328 25.252 25.251-11.328 25.252-25.252 25.252zm0-35.503c-5.653 0-10.252 4.599-10.252 10.251s4.599 10.252 10.252 10.252 10.252-4.599 10.252-10.252-4.599-10.251-10.252-10.251z" fill="#e207b9"/><circle cx="286" cy="203" r="11" fill="#2115c2"/><path d="m257.614 230.264h-46.639c-4.142 0-7.5-3.358-7.5-7.5s3.358-7.5 7.5-7.5h46.639c4.142 0 7.5 3.358 7.5 7.5s-3.358 7.5-7.5 7.5z" fill="#2115c2"/><g fill="#2115c2"><circle cx="182" cy="203" r="11"/><path d="m451.704 141.298h-43.411-103.471c-3.601-14.465-11.628-27.579-23.026-37.431-6-5.187-12.768-9.299-20.001-12.256v-79.714c0-4.142-3.358-7.5-7.5-7.5h-40c-4.142 0-7.5 3.358-7.5 7.5v79.714c-7.233 2.957-14.002 7.069-20.001 12.256-11.397 9.852-19.425 22.967-23.025 37.431h-103.473c-33.247 0-60.296 27.049-60.296 60.297v136.318c0 33.248 27.049 60.296 60.296 60.296h391.407c33.248 0 60.296-27.049 60.296-60.296v-136.318c.001-33.248-27.048-60.297-60.295-60.297zm-229.91-54.027v-67.874h25v67.873c-3.679-.64-8.172-1.077-12.5-1.077-4.344.001-8.836.44-12.5 1.078zm-25.191 27.944c21.65-18.716 53.828-18.634 75.384 0 8.088 6.992 14.039 16.047 17.251 26.083h-109.886c3.211-10.036 9.162-19.091 17.251-26.083zm-181.603 222.698v-136.318c0-24.977 20.32-45.296 45.296-45.296h347.997c24.976 0 45.296 20.32 45.296 45.296v136.318c0 24.977-20.32 45.296-45.296 45.296h-347.997c-24.976 0-45.296-20.319-45.296-45.296zm482 0c0 24.977-20.32 45.296-45.296 45.296h-3.654c12.744-11.205 20.539-27.566 20.539-45.296v-136.318c0-17.304-7.476-33.811-20.539-45.296h3.654c24.977 0 45.296 20.32 45.296 45.296z"/></g></g><g transform="matrix(0.0390625 0 0 0.0390625 165 165)" id="L1_100"><path d="m201.663 411.368-11.739 16.915c-10.642 15.321-30.652 20.952-47.722 13.426l-111.469-49.161c-18.809-8.292-27.94-29.782-20.849-49.078l72.816-198.196h55.144l-66.48 180.94c-4.917 13.395 1.418 28.312 14.482 34.068z" fill="#7181ff"/><path d="m481.267 392.548-111.469 49.161c-17.07 7.526-37.08 1.894-47.722-13.426l-11.739-16.915 115.817-51.086c13.064-5.756 19.399-20.673 14.482-34.068l-66.48-180.94h55.144l72.815 198.197c7.091 19.295-2.039 40.785-20.848 49.077z" fill="#7181ff"/><path d="m139.176 448.572-111.47-49.161c-22.376-9.865-33.296-35.574-24.861-58.528l72.814-198.196c1.085-2.952 3.896-4.914 7.04-4.914h55.145c2.451 0 4.747 1.198 6.151 3.208 1.402 2.01 1.734 4.579.89 6.879l-66.481 180.94c-3.545 9.656 1.052 20.47 10.465 24.618l115.82 51.087c2.049.904 3.587 2.675 4.194 4.831.606 2.155.219 4.468-1.059 6.308l-11.739 16.915c-12.704 18.291-36.656 24.941-56.909 16.013zm-51.242-295.798-71.008 193.283c-5.712 15.542 1.682 32.95 16.833 39.629l111.47 49.161c13.752 6.062 29.96 1.504 38.535-10.843l6.554-9.443-107.499-47.417c-16.637-7.33-24.762-26.444-18.496-43.515l62.775-170.855z" fill="#2115c2"/><path d="m315.915 432.562-11.74-16.918c-1.277-1.839-1.665-4.153-1.059-6.308s2.145-3.927 4.194-4.831l115.816-51.086c9.418-4.149 14.014-14.963 10.468-24.62l-66.479-180.939c-.845-2.3-.513-4.869.89-6.879s3.699-3.208 6.151-3.208h55.144c3.145 0 5.955 1.962 7.04 4.914l72.814 198.196c8.435 22.954-2.485 48.663-24.863 58.528l-111.468 49.16c-20.203 8.908-44.175 2.321-56.908-16.009zm5.767-18.001 6.555 9.446c8.575 12.344 24.784 16.904 38.535 10.839l111.468-49.16h.001c15.151-6.679 22.545-24.086 16.833-39.628l-71.009-193.283h-39.163l62.774 170.853c6.267 17.073-1.858 36.187-18.499 43.518z" fill="#2115c2"/><path d="m396.64 66.993h-281.28c-18.043 0-32.66 14.627-32.66 32.66v45.621h107.4c3.966-13.677 4.876-24.594 4.892-24.828.671-9.982 9.31-17.535 19.29-16.86 9.983.671 17.531 9.308 16.86 19.29-.067.993-.733 9.929-3.596 22.398h56.908c-2.863-12.469-3.529-21.405-3.596-22.398-.671-9.982 6.877-18.619 16.86-19.29 9.98-.675 18.619 6.877 19.29 16.86.016.234.926 11.151 4.892 24.828h107.4v-45.621c0-18.033-14.616-32.66-32.66-32.66z" fill="#88f8d8"/><path d="m440.636 326.214-66.48-180.94h-52.256c4.647 16.025 13.49 35.84 30.019 46.712 8.359 5.498 10.678 16.731 5.18 25.091-5.509 8.376-16.747 10.667-25.091 5.18-29.736-19.558-42.32-54.183-47.555-76.983h-56.908c-5.235 22.8-17.819 57.425-47.555 76.983-8.343 5.487-19.581 3.195-25.091-5.18-5.498-8.359-3.178-19.593 5.18-25.091 16.53-10.872 25.373-30.687 30.019-46.712h-52.257l-66.48 180.94c-4.917 13.395 1.418 28.312 14.482 34.068l115.817 51.086 36.708-52.867c8.53-12.298 26.728-12.298 35.258 0l36.708 52.867 115.817-51.086c13.066-5.756 19.402-20.673 14.485-34.068z" fill="#88f8d8"/><path d="m447.677 323.629c-.001 0-.001-.001-.001-.002l-62.774-170.853h44.398c4.143 0 7.5-3.358 7.5-7.5v-45.621c0-22.145-18.016-40.161-40.16-40.161h-281.28c-22.145 0-40.16 18.016-40.16 40.161v45.621c0 4.142 3.358 7.5 7.5 7.5h44.398l-62.775 170.855c-6.266 17.071 1.859 36.185 18.496 43.515l115.818 51.086c3.285 1.449 7.138.366 9.187-2.585l36.711-52.87c2.644-3.812 6.823-5.998 11.465-5.998s8.822 2.186 11.468 6.001l36.708 52.867c2.048 2.951 5.901 4.035 9.187 2.585l115.814-51.085c16.641-7.331 24.766-26.445 18.5-43.516zm-357.477-185.856v-38.12c0-13.873 11.287-25.16 25.16-25.16h281.28c13.873 0 25.16 11.287 25.16 25.16v38.12h-47.644-46.502c-2.529-10.271-3.161-17.807-3.163-17.831-.459-6.827-3.549-13.067-8.702-17.571-5.155-4.505-11.764-6.731-18.574-6.269-14.094.948-24.788 13.184-23.84 27.281.052.775.458 6.249 1.901 14.389h-38.553c1.443-8.14 1.85-13.615 1.902-14.394.947-14.093-9.748-26.329-23.837-27.276-6.831-.464-13.426 1.765-18.579 6.269-5.152 4.504-8.242 10.743-8.697 17.506-.007.087-.633 7.609-3.167 17.895h-46.502-47.643zm257.598 60.479c2.368 1.558 3.988 3.946 4.563 6.723.573 2.777.03 5.611-1.527 7.98-3.216 4.89-9.812 6.253-14.703 3.036-27.01-17.766-39.035-49.175-44.367-72.395-2.735-11.914-3.361-20.309-3.422-21.222-.393-5.84 4.039-10.911 9.883-11.304 2.832-.192 5.558.732 7.692 2.597 2.136 1.867 3.417 4.453 3.609 7.311.008.113.923 11.734 5.169 26.381 0 .002.001.003.001.005 4.761 16.414 14.368 38.567 33.102 50.888zm-124.139-75.884c-.063.918-.689 9.313-3.423 21.227-9.659 42.069-29.459 62.589-44.367 72.394-4.89 3.218-11.486 1.855-14.703-3.035-1.558-2.369-2.101-5.203-1.527-7.98s2.194-5.164 4.563-6.723c18.735-12.322 28.342-34.475 33.101-50.889 4.237-14.611 5.164-26.306 5.172-26.413.19-2.83 1.471-5.416 3.607-7.284 2.135-1.866 4.87-2.779 7.697-2.597 5.84.394 10.272 5.465 9.88 11.3zm199.467 231.051-110.156 48.59-33.178-47.782c-5.408-7.795-14.302-12.449-23.792-12.449-9.491 0-18.385 4.654-23.789 12.447l-33.181 47.785-110.16-48.592c-9.414-4.148-14.011-14.962-10.465-24.618l64.674-176.026h36.612c-4.616 12.076-12.039 25.254-23.732 32.945-5.717 3.76-9.627 9.521-11.01 16.222-1.384 6.701-.075 13.54 3.685 19.257 7.762 11.799 23.679 15.086 35.478 7.325 16.477-10.837 38.058-32.7 49.316-75.749h45.143c11.258 43.049 32.84 64.912 49.316 75.749 11.799 7.761 27.717 4.475 35.478-7.326 3.761-5.717 5.07-12.556 3.686-19.257-1.383-6.701-5.293-12.462-11.01-16.222-11.693-7.69-19.115-20.868-23.732-32.945h36.612l64.675 176.027c3.544 9.657-1.053 20.471-10.47 24.619z" fill="#007ea8"/><path d="m154.901 217.076c-5.498-8.359-3.178-19.593 5.18-25.091 30.637-20.15 34.877-71.032 34.911-71.54.671-9.982 9.31-17.535 19.29-16.86 9.983.671 17.531 9.308 16.86 19.29-.189 2.808-5.153 69.126-51.151 99.38-8.343 5.488-19.581 3.197-25.09-5.179z" fill="#565eec"/><path d="m357.099 217.076c5.498-8.359 3.178-19.593-5.18-25.091-30.637-20.15-34.877-71.032-34.911-71.54-.671-9.982-9.31-17.535-19.29-16.86-9.983.671-17.531 9.308-16.86 19.29.189 2.808 5.153 69.126 51.151 99.38 8.343 5.488 19.581 3.197 25.09-5.179z" fill="#565eec"/><path d="m148.635 221.198c-7.78-11.826-4.506-27.698 7.325-35.479 13.894-9.139 21.682-26.098 25.768-38.716 4.746-14.657 5.776-27.001 5.785-27.125.94-13.971 13.085-24.74 27.276-23.776 14.09.948 24.785 13.184 23.837 27.276-.199 2.959-5.43 72.86-54.514 105.144-11.752 7.73-27.684 4.525-35.477-7.324zm12.532-8.244c3.217 4.89 9.813 6.253 14.703 3.035 17.728-11.659 31.108-30.542 39.772-56.121 6.783-20.028 7.97-36.791 8.017-37.495.393-5.841-4.039-10.911-9.879-11.304-5.893-.391-10.912 4.059-11.303 9.88-.037.545-4.068 54.805-38.274 77.302-4.902 3.225-6.26 9.801-3.036 14.703z" fill="#2115c2"/><path d="m327.888 228.523c-49.084-32.284-54.314-102.185-54.514-105.145-.947-14.092 9.748-26.328 23.841-27.276 14.087-.956 26.324 9.684 27.276 23.84.033.407 4.136 47.746 31.55 65.776 11.828 7.779 15.107 23.65 7.325 35.479-7.787 11.838-23.712 15.063-35.478 7.326zm-29.663-117.454c-5.844.393-10.276 5.464-9.883 11.304.047.705 1.234 17.467 8.017 37.495 8.664 25.58 22.044 44.462 39.772 56.122 4.891 3.216 11.486 1.854 14.703-3.036 3.224-4.902 1.865-11.478-3.035-14.702-34.099-22.426-38.235-76.742-38.274-77.288-.401-5.985-5.572-10.284-11.3-9.895z" fill="#2115c2"/><circle cx="316" cy="266" r="12" fill="#007ea8"/><path d="m283.33 296.987h-54.66c-4.143 0-7.5-3.358-7.5-7.5s3.358-7.5 7.5-7.5h54.659c4.143 0 7.5 3.358 7.5 7.5.001 4.142-3.357 7.5-7.499 7.5z" fill="#007ea8"/><circle cx="195" cy="266" r="12" fill="#007ea8"/></g><g transform="matrix(0.17578125 0 0 0.17578125 277.0000020599365 285)" id="L1_101"><path d="m314.554 398.663v82.469c0 12.906-10.462 23.368-23.368 23.368h-39.007c-12.906 0-23.368-10.462-23.368-23.368s10.462-23.368 23.368-23.368h15.639v-59.101z" fill="#ff63ed"/><path d="m205.796 398.663v82.469c0 12.906-10.462 23.368-23.368 23.368h-39.007c-12.906 0-23.368-10.462-23.368-23.368s10.462-23.368 23.368-23.368h15.639v-59.101z" fill="#ff63ed"/><path d="m291.186 512h-39.007c-17.021 0-30.868-13.848-30.868-30.868 0-17.021 13.848-30.869 30.868-30.869h8.139v-51.601c0-4.142 3.357-7.5 7.5-7.5h46.737c4.143 0 7.5 3.358 7.5 7.5v82.469c0 17.021-13.848 30.869-30.869 30.869zm-39.007-46.737c-8.75 0-15.868 7.119-15.868 15.869s7.118 15.868 15.868 15.868h39.007c8.75 0 15.869-7.119 15.869-15.868v-74.969h-31.737v51.601c0 4.142-3.357 7.5-7.5 7.5h-15.639z" fill="#e207b9"/><path d="m182.428 512h-39.007c-17.021 0-30.868-13.848-30.868-30.868 0-17.021 13.848-30.869 30.868-30.869h8.139v-51.601c0-4.142 3.357-7.5 7.5-7.5h46.736c4.143 0 7.5 3.358 7.5 7.5v82.469c0 17.021-13.848 30.869-30.868 30.869zm-39.007-46.737c-8.75 0-15.868 7.119-15.868 15.869s7.118 15.868 15.868 15.868h39.007c8.75 0 15.868-7.119 15.868-15.868v-74.969h-31.736v51.601c0 4.142-3.357 7.5-7.5 7.5h-15.639z" fill="#e207b9"/><path d="m159.059 398.663h46.737v41.227h-46.737z" fill="#e207b9"/><path d="m267.818 398.663h46.737v41.227h-46.737z" fill="#e207b9"/><path d="m401.107 7.5h-62.316c28.885 0 52.302 23.416 52.302 52.302v286.559c0 28.885-23.416 52.302-52.302 52.302h62.316c28.885 0 52.302-23.416 52.302-52.302v-286.559c0-28.886-23.417-52.302-52.302-52.302z" fill="#ffd600"/><path d="m338.791 7.5h-227.898c-28.885 0-52.302 23.416-52.302 52.302v286.559c0 28.885 23.416 52.302 52.302 52.302h227.898c28.885 0 52.302-23.416 52.302-52.302v-286.559c0-28.886-23.416-52.302-52.302-52.302z" fill="#ffff6f"/><path d="m401.106 0c-7.644 0-282.155 0-290.213 0-32.974 0-59.801 26.827-59.801 59.802v286.559c0 32.975 26.827 59.802 59.802 59.802h290.213c32.975 0 59.802-26.827 59.802-59.802v-286.559c-.001-32.975-26.828-59.802-59.803-59.802zm-335.014 346.361v-286.559c0-24.704 20.097-44.802 44.802-44.802h227.897c24.704 0 44.802 20.098 44.802 44.802v286.559c0 24.704-20.098 44.802-44.802 44.802h-227.897c-24.705 0-44.802-20.099-44.802-44.802zm379.816 0c0 24.704-20.098 44.802-44.802 44.802h-22.745c12.869-11.394 20.231-27.674 20.231-44.802v-286.559c0-17.014-7.28-33.335-20.231-44.802h22.745c24.704 0 44.802 20.098 44.802 44.802z" fill="#ff9900"/><path d="m303.719 113.358h-157.754c-17.879 0-32.374 14.494-32.374 32.374v101.778c0 17.879 14.494 32.374 32.374 32.374h157.754c17.879 0 32.374-14.494 32.374-32.374v-101.778c0-17.88-14.494-32.374-32.374-32.374z" fill="#17d9c3"/><g fill="#b98eff"><path d="m333.23 363.9v34.76h-72.26v-77.32h29.7c23.51 0 42.56 19.05 42.56 42.56z"/><path d="m188.71 321.34h72.26v77.32h-72.26z"/><path d="m188.71 321.34v77.32h-72.26v-34.76c0-23.51 19.06-42.56 42.56-42.56z"/></g><path d="m290.67 313.84c-14.51 0-117.673 0-131.66 0-27.603 0-50.06 22.457-50.06 50.06v34.76c0 4.142 3.357 7.5 7.5 7.5h216.78c4.143 0 7.5-3.358 7.5-7.5v-34.76c0-27.603-22.457-50.06-50.06-50.06zm-166.72 50.06c0-19.332 15.728-35.06 35.06-35.06h22.2v62.32h-57.26zm72.26-35.06h57.26v62.32h-57.26zm129.52 62.32h-57.26v-62.32h22.2c19.332 0 35.061 15.728 35.061 35.06v27.26z" fill="#6d00ca"/><circle cx="172" cy="176" r="25" fill="#88f8d8"/><circle cx="277" cy="176" r="25" fill="#88f8d8"/><path d="m249.077 229.801h-48.47c-12.893 0-23.345 10.452-23.345 23.345v26.738h95.159v-26.738c.001-12.893-10.451-23.345-23.344-23.345z" fill="#88f8d8"/><path d="m172.601 209.802c-18.296 0-33.181-14.885-33.181-33.181s14.885-33.181 33.181-33.181 33.181 14.885 33.181 33.181c-.001 18.296-14.886 33.181-33.181 33.181zm0-51.362c-10.024 0-18.181 8.156-18.181 18.181s8.156 18.181 18.181 18.181 18.181-8.156 18.181-18.181-8.157-18.181-18.181-18.181z" fill="#007ea8"/><path d="m277.079 209.802c-18.296 0-33.181-14.885-33.181-33.181s14.885-33.181 33.181-33.181 33.181 14.885 33.181 33.181-14.885 33.181-33.181 33.181zm0-51.362c-10.024 0-18.181 8.156-18.181 18.181s8.156 18.181 18.181 18.181 18.181-8.156 18.181-18.181-8.156-18.181-18.181-18.181z" fill="#007ea8"/><circle cx="276" cy="54" r="11" fill="#ff9900"/><path d="m248.159 81.31h-46.639c-4.143 0-7.5-3.358-7.5-7.5s3.357-7.5 7.5-7.5h46.639c4.143 0 7.5 3.358 7.5 7.5s-3.357 7.5-7.5 7.5z" fill="#ff9900"/><circle cx="172" cy="54" r="11" fill="#ff9900"/><path d="m303.719 105.858h-157.754c-21.986 0-39.873 17.887-39.873 39.874v101.778c0 21.987 17.887 39.874 39.873 39.874h157.754c21.986 0 39.874-17.887 39.874-39.874v-101.779c0-21.986-17.888-39.873-39.874-39.873zm-118.956 166.526v-19.238c0-8.737 7.108-15.845 15.845-15.845h48.47c8.736 0 15.845 7.108 15.845 15.845v19.238zm143.83-24.874c0 13.716-11.158 24.874-24.874 24.874h-23.797v-19.238c0-17.008-13.837-30.845-30.845-30.845h-48.47c-17.008 0-30.845 13.837-30.845 30.845v19.238h-23.798c-13.715 0-24.873-11.158-24.873-24.874v-101.779c0-13.715 11.158-24.874 24.873-24.874h157.754c13.716 0 24.874 11.158 24.874 24.874v101.779z" fill="#007ea8"/></g><g transform="matrix(-0.1171875 0 0 0.1171875 117.50011581420898 57.5)" id="L1_102"><path d="m314.554 398.663v82.469c0 12.906-10.462 23.368-23.368 23.368h-39.007c-12.906 0-23.368-10.462-23.368-23.368s10.462-23.368 23.368-23.368h15.639v-59.101z" fill="#ff63ed"/><path d="m205.796 398.663v82.469c0 12.906-10.462 23.368-23.368 23.368h-39.007c-12.906 0-23.368-10.462-23.368-23.368s10.462-23.368 23.368-23.368h15.639v-59.101z" fill="#ff63ed"/><path d="m291.186 512h-39.007c-17.021 0-30.868-13.848-30.868-30.868 0-17.021 13.848-30.869 30.868-30.869h8.139v-51.601c0-4.142 3.357-7.5 7.5-7.5h46.737c4.143 0 7.5 3.358 7.5 7.5v82.469c0 17.021-13.848 30.869-30.869 30.869zm-39.007-46.737c-8.75 0-15.868 7.119-15.868 15.869s7.118 15.868 15.868 15.868h39.007c8.75 0 15.869-7.119 15.869-15.868v-74.969h-31.737v51.601c0 4.142-3.357 7.5-7.5 7.5h-15.639z" fill="#e207b9"/><path d="m182.428 512h-39.007c-17.021 0-30.868-13.848-30.868-30.868 0-17.021 13.848-30.869 30.868-30.869h8.139v-51.601c0-4.142 3.357-7.5 7.5-7.5h46.736c4.143 0 7.5 3.358 7.5 7.5v82.469c0 17.021-13.848 30.869-30.868 30.869zm-39.007-46.737c-8.75 0-15.868 7.119-15.868 15.869s7.118 15.868 15.868 15.868h39.007c8.75 0 15.868-7.119 15.868-15.868v-74.969h-31.736v51.601c0 4.142-3.357 7.5-7.5 7.5h-15.639z" fill="#e207b9"/><path d="m159.059 398.663h46.737v41.227h-46.737z" fill="#e207b9"/><path d="m267.818 398.663h46.737v41.227h-46.737z" fill="#e207b9"/><path d="m401.107 7.5h-62.316c28.885 0 52.302 23.416 52.302 52.302v286.559c0 28.885-23.416 52.302-52.302 52.302h62.316c28.885 0 52.302-23.416 52.302-52.302v-286.559c0-28.886-23.417-52.302-52.302-52.302z" fill="#ffd600"/><path d="m338.791 7.5h-227.898c-28.885 0-52.302 23.416-52.302 52.302v286.559c0 28.885 23.416 52.302 52.302 52.302h227.898c28.885 0 52.302-23.416 52.302-52.302v-286.559c0-28.886-23.416-52.302-52.302-52.302z" fill="#ffff6f"/><path d="m401.106 0c-7.644 0-282.155 0-290.213 0-32.974 0-59.801 26.827-59.801 59.802v286.559c0 32.975 26.827 59.802 59.802 59.802h290.213c32.975 0 59.802-26.827 59.802-59.802v-286.559c-.001-32.975-26.828-59.802-59.803-59.802zm-335.014 346.361v-286.559c0-24.704 20.097-44.802 44.802-44.802h227.897c24.704 0 44.802 20.098 44.802 44.802v286.559c0 24.704-20.098 44.802-44.802 44.802h-227.897c-24.705 0-44.802-20.099-44.802-44.802zm379.816 0c0 24.704-20.098 44.802-44.802 44.802h-22.745c12.869-11.394 20.231-27.674 20.231-44.802v-286.559c0-17.014-7.28-33.335-20.231-44.802h22.745c24.704 0 44.802 20.098 44.802 44.802z" fill="#ff9900"/><path d="m303.719 113.358h-157.754c-17.879 0-32.374 14.494-32.374 32.374v101.778c0 17.879 14.494 32.374 32.374 32.374h157.754c17.879 0 32.374-14.494 32.374-32.374v-101.778c0-17.88-14.494-32.374-32.374-32.374z" fill="#17d9c3"/><g fill="#b98eff"><path d="m333.23 363.9v34.76h-72.26v-77.32h29.7c23.51 0 42.56 19.05 42.56 42.56z"/><path d="m188.71 321.34h72.26v77.32h-72.26z"/><path d="m188.71 321.34v77.32h-72.26v-34.76c0-23.51 19.06-42.56 42.56-42.56z"/></g><path d="m290.67 313.84c-14.51 0-117.673 0-131.66 0-27.603 0-50.06 22.457-50.06 50.06v34.76c0 4.142 3.357 7.5 7.5 7.5h216.78c4.143 0 7.5-3.358 7.5-7.5v-34.76c0-27.603-22.457-50.06-50.06-50.06zm-166.72 50.06c0-19.332 15.728-35.06 35.06-35.06h22.2v62.32h-57.26zm72.26-35.06h57.26v62.32h-57.26zm129.52 62.32h-57.26v-62.32h22.2c19.332 0 35.061 15.728 35.061 35.06v27.26z" fill="#6d00ca"/><circle cx="172" cy="176" r="25" fill="#88f8d8"/><circle cx="277" cy="176" r="25" fill="#88f8d8"/><path d="m249.077 229.801h-48.47c-12.893 0-23.345 10.452-23.345 23.345v26.738h95.159v-26.738c.001-12.893-10.451-23.345-23.344-23.345z" fill="#88f8d8"/><path d="m172.601 209.802c-18.296 0-33.181-14.885-33.181-33.181s14.885-33.181 33.181-33.181 33.181 14.885 33.181 33.181c-.001 18.296-14.886 33.181-33.181 33.181zm0-51.362c-10.024 0-18.181 8.156-18.181 18.181s8.156 18.181 18.181 18.181 18.181-8.156 18.181-18.181-8.157-18.181-18.181-18.181z" fill="#007ea8"/><path d="m277.079 209.802c-18.296 0-33.181-14.885-33.181-33.181s14.885-33.181 33.181-33.181 33.181 14.885 33.181 33.181-14.885 33.181-33.181 33.181zm0-51.362c-10.024 0-18.181 8.156-18.181 18.181s8.156 18.181 18.181 18.181 18.181-8.156 18.181-18.181-8.156-18.181-18.181-18.181z" fill="#007ea8"/><circle cx="276" cy="54" r="11" fill="#ff9900"/><path d="m248.159 81.31h-46.639c-4.143 0-7.5-3.358-7.5-7.5s3.357-7.5 7.5-7.5h46.639c4.143 0 7.5 3.358 7.5 7.5s-3.357 7.5-7.5 7.5z" fill="#ff9900"/><circle cx="172" cy="54" r="11" fill="#ff9900"/><path d="m303.719 105.858h-157.754c-21.986 0-39.873 17.887-39.873 39.874v101.778c0 21.987 17.887 39.874 39.873 39.874h157.754c21.986 0 39.874-17.887 39.874-39.874v-101.779c0-21.986-17.888-39.873-39.874-39.873zm-118.956 166.526v-19.238c0-8.737 7.108-15.845 15.845-15.845h48.47c8.736 0 15.845 7.108 15.845 15.845v19.238zm143.83-24.874c0 13.716-11.158 24.874-24.874 24.874h-23.797v-19.238c0-17.008-13.837-30.845-30.845-30.845h-48.47c-17.008 0-30.845 13.837-30.845 30.845v19.238h-23.798c-13.715 0-24.873-11.158-24.873-24.874v-101.779c0-13.715 11.158-24.874 24.873-24.874h157.754c13.716 0 24.874 11.158 24.874 24.874v101.779z" fill="#007ea8"/></g></defs><g fi:class="KUsePattern"><pattern id="pattern_L1_97" width="350" height="350" patternUnits="userSpaceOnUse"><use xlink:href="#L1_97" x="-350" y="-350"/><use xlink:href="#L1_97" x="0" y="-350"/><use xlink:href="#L1_97" x="350" y="-350"/><use xlink:href="#L1_97" x="-350" y="0"/><use xlink:href="#L1_97" x="0" y="0"/><use xlink:href="#L1_97" x="350" y="0"/><use xlink:href="#L1_97" x="-350" y="350"/><use xlink:href="#L1_97" x="0" y="350"/><use xlink:href="#L1_97" x="350" y="350"/></pattern><rect x="0" y="0" width="100%" height="100%" fill="url(#pattern_L1_97)"/></g><g fi:class="KUsePattern"><pattern id="pattern_L1_95" width="350" height="350" patternUnits="userSpaceOnUse"><use xlink:href="#L1_95" x="-350" y="-350"/><use xlink:href="#L1_95" x="0" y="-350"/><use xlink:href="#L1_95" x="350" y="-350"/><use xlink:href="#L1_95" x="-350" y="0"/><use xlink:href="#L1_95" x="0" y="0"/><use xlink:href="#L1_95" x="350" y="0"/><use xlink:href="#L1_95" x="-350" y="350"/><use xlink:href="#L1_95" x="0" y="350"/><use xlink:href="#L1_95" x="350" y="350"/></pattern><rect x="0" y="0" width="100%" height="100%" fill="url(#pattern_L1_95)"/></g><g fi:class="KUsePattern"><pattern id="pattern_L1_96" width="350" height="350" patternUnits="userSpaceOnUse"><use xlink:href="#L1_96" x="-350" y="-350"/><use xlink:href="#L1_96" x="0" y="-350"/><use xlink:href="#L1_96" x="350" y="-350"/><use xlink:href="#L1_96" x="-350" y="0"/><use xlink:href="#L1_96" x="0" y="0"/><use xlink:href="#L1_96" x="350" y="0"/><use xlink:href="#L1_96" x="-350" y="350"/><use xlink:href="#L1_96" x="0" y="350"/><use xlink:href="#L1_96" x="350" y="350"/></pattern><rect x="0" y="0" width="100%" height="100%" fill="url(#pattern_L1_96)"/></g><g fi:class="KUsePattern"><pattern id="pattern_L1_98" width="350" height="350" patternUnits="userSpaceOnUse"><use xlink:href="#L1_98" x="-350" y="-350"/><use xlink:href="#L1_98" x="0" y="-350"/><use xlink:href="#L1_98" x="350" y="-350"/><use xlink:href="#L1_98" x="-350" y="0"/><use xlink:href="#L1_98" x="0" y="0"/><use xlink:href="#L1_98" x="350" y="0"/><use xlink:href="#L1_98" x="-350" y="350"/><use xlink:href="#L1_98" x="0" y="350"/><use xlink:href="#L1_98" x="350" y="350"/></pattern><rect x="0" y="0" width="100%" height="100%" fill="url(#pattern_L1_98)"/></g><g fi:class="KUsePattern"><pattern id="pattern_L1_99" width="350" height="350" patternUnits="userSpaceOnUse"><use xlink:href="#L1_99" x="-350" y="-350"/><use xlink:href="#L1_99" x="0" y="-350"/><use xlink:href="#L1_99" x="350" y="-350"/><use xlink:href="#L1_99" x="-350" y="0"/><use xlink:href="#L1_99" x="0" y="0"/><use xlink:href="#L1_99" x="350" y="0"/><use xlink:href="#L1_99" x="-350" y="350"/><use xlink:href="#L1_99" x="0" y="350"/><use xlink:href="#L1_99" x="350" y="350"/></pattern><rect x="0" y="0" width="100%" height="100%" fill="url(#pattern_L1_99)"/></g><g fi:class="KUsePattern"><pattern id="pattern_L1_100" width="350" height="350" patternUnits="userSpaceOnUse"><use xlink:href="#L1_100" x="-350" y="-350"/><use xlink:href="#L1_100" x="0" y="-350"/><use xlink:href="#L1_100" x="350" y="-350"/><use xlink:href="#L1_100" x="-350" y="0"/><use xlink:href="#L1_100" x="0" y="0"/><use xlink:href="#L1_100" x="350" y="0"/><use xlink:href="#L1_100" x="-350" y="350"/><use xlink:href="#L1_100" x="0" y="350"/><use xlink:href="#L1_100" x="350" y="350"/></pattern><rect x="0" y="0" width="100%" height="100%" fill="url(#pattern_L1_100)"/></g><g fi:class="KUsePattern"><pattern id="pattern_L1_101" width="350" height="350" patternUnits="userSpaceOnUse"><use xlink:href="#L1_101" x="-350" y="-350"/><use xlink:href="#L1_101" x="0" y="-350"/><use xlink:href="#L1_101" x="350" y="-350"/><use xlink:href="#L1_101" x="-350" y="0"/><use xlink:href="#L1_101" x="0" y="0"/><use xlink:href="#L1_101" x="350" y="0"/><use xlink:href="#L1_101" x="-350" y="350"/><use xlink:href="#L1_101" x="0" y="350"/><use xlink:href="#L1_101" x="350" y="350"/></pattern><rect x="0" y="0" width="100%" height="100%" fill="url(#pattern_L1_101)"/></g><g fi:class="KUsePattern"><pattern id="pattern_L1_102" width="350" height="350" patternUnits="userSpaceOnUse"><use xlink:href="#L1_102" x="-350" y="-350"/><use xlink:href="#L1_102" x="0" y="-350"/><use xlink:href="#L1_102" x="350" y="-350"/><use xlink:href="#L1_102" x="-350" y="0"/><use xlink:href="#L1_102" x="0" y="0"/><use xlink:href="#L1_102" x="350" y="0"/><use xlink:href="#L1_102" x="-350" y="350"/><use xlink:href="#L1_102" x="0" y="350"/><use xlink:href="#L1_102" x="350" y="350"/></pattern><rect x="0" y="0" width="100%" height="100%" fill="url(#pattern_L1_102)"/></g></svg>